<?xml version="1.0" encoding="utf-8"?>
<svg version="1.1" xmlns="http://www.w3.org/2000/svg" xmlns:xlink="http://www.w3.org/1999/xlink" viewBox="0 0 49.389 33.845">
<path d="M39.853,5.02H9.426c-0.311,0-0.563,0.255-0.563,0.566v17.702c0,0.314,0.252,0.569,0.563,0.569h30.427
	c0.314,0,0.566-0.255,0.566-0.569V5.587C40.419,5.275,40.167,5.02,39.853,5.02z M39.287,22.726H9.995V6.153h29.291V22.726z"/>
<path d="M46.177,25.097h-3.35V3.212c0-0.314-0.255-0.566-0.566-0.566H7.019c-0.312,0-0.563,0.252-0.563,0.566v21.885H3.212
	c-0.314,0-0.566,0.255-0.566,0.569v4.963c0,0.314,0.252,0.569,0.566,0.569h42.964c0.314,0,0.566-0.255,0.566-0.569v-4.963
	C46.743,25.352,46.491,25.097,46.177,25.097z M45.61,30.066H3.779V26.23h3.24H42.26h3.35V30.066z M7.585,3.778h34.109v21.319H7.585
	V3.778z"/>
<path d="M12.334,20.511h8.832c0.311,0,0.563-0.255,0.563-0.567V8.501c0-0.311-0.252-0.566-0.563-0.566h-8.832
	c-0.311,0-0.566,0.255-0.566,0.566v11.444C11.768,20.256,12.023,20.511,12.334,20.511z M12.901,9.067h7.696v10.311h-7.696V9.067z"/>
<path d="M18.018,11.605c-0.326-0.252-0.777-0.377-1.349-0.377c-0.697,0-1.367,0.181-2.007,0.546l0.537,1.049
	c0.519-0.276,0.975-0.412,1.361-0.412c0.157,0,0.285,0.032,0.383,0.095s0.148,0.148,0.148,0.255c0,0.136-0.048,0.258-0.139,0.365
	c-0.089,0.104-0.24,0.223-0.448,0.353c-0.264,0.166-0.445,0.335-0.549,0.507c-0.104,0.175-0.154,0.386-0.154,0.641v0.329h1.186
	v-0.196c0-0.11,0.032-0.205,0.101-0.288c0.068-0.08,0.237-0.208,0.507-0.386c0.317-0.202,0.548-0.415,0.697-0.643
	c0.145-0.228,0.216-0.498,0.216-0.809C18.507,12.201,18.344,11.857,18.018,11.605z"/>
<path d="M16.446,15.566c-0.267,0-0.468,0.063-0.605,0.193c-0.139,0.128-0.207,0.311-0.207,0.546c0,0.237,0.071,0.421,0.216,0.546
	c0.145,0.131,0.344,0.193,0.596,0.193c0.249,0,0.445-0.065,0.587-0.193c0.142-0.131,0.213-0.308,0.213-0.546
	c0-0.231-0.071-0.415-0.207-0.546C16.903,15.631,16.705,15.566,16.446,15.566z"/>
<path d="M24.03,11.009h9.3c0.311,0,0.566-0.252,0.566-0.563c0-0.314-0.255-0.569-0.566-0.569h-9.3c-0.314,0-0.566,0.255-0.566,0.569
	C23.464,10.757,23.716,11.009,24.03,11.009z"/>
<path d="M24.03,14.466h12.54c0.312,0,0.563-0.255,0.563-0.566c0-0.314-0.252-0.566-0.563-0.566H24.03
	c-0.314,0-0.566,0.252-0.566,0.566C23.464,14.211,23.716,14.466,24.03,14.466z"/>
<path d="M24.03,16.408h12.54c0.312,0,0.563-0.252,0.563-0.566c0-0.312-0.252-0.567-0.563-0.567H24.03
	c-0.314,0-0.566,0.255-0.566,0.567C23.464,16.156,23.716,16.408,24.03,16.408z"/>
<path d="M24.03,18.35h12.54c0.312,0,0.563-0.252,0.563-0.563c0-0.314-0.252-0.569-0.563-0.569H24.03
	c-0.314,0-0.566,0.255-0.566,0.569C23.464,18.098,23.716,18.35,24.03,18.35z"/>















</svg>
