<?xml version="1.0" encoding="utf-8"?>
<svg version="1.1" xmlns="http://www.w3.org/2000/svg" xmlns:xlink="http://www.w3.org/1999/xlink" viewBox="0 0 21.879 36.157">
<path d="M13.998,1.937H7.881c-0.311,0-0.566,0.252-0.566,0.566V8.05H2.503c-0.311,0-0.566,0.255-0.566,0.566V33.65
	c0,0.314,0.255,0.569,0.566,0.569h3.893h9.087h3.893c0.311,0,0.566-0.255,0.566-0.569V8.616c0-0.311-0.255-0.566-0.566-0.566h-4.812
	V2.503C14.564,2.189,14.309,1.937,13.998,1.937z M18.809,33.087h-2.76v-6.584c0-0.311-0.252-0.566-0.567-0.566h-4.542H6.396
	c-0.311,0-0.567,0.255-0.567,0.566v6.584H3.072V9.183h4.809h6.116h4.812V33.087z M6.962,33.087v-6.018h3.412v6.018H6.962z
	 M11.504,33.087v-6.018h3.415v6.018H11.504z M13.431,8.05H8.45V3.069h4.981V8.05z"/>
<path d="M7.57,10.81H4.768c-0.311,0-0.566,0.252-0.566,0.566v2.798c0,0.315,0.255,0.566,0.566,0.566H7.57
	c0.311,0,0.566-0.252,0.566-0.566v-2.798C8.136,11.062,7.881,10.81,7.57,10.81z M7.004,13.609H5.335v-1.666h1.669V13.609z"/>
<path d="M12.34,10.81H9.539c-0.311,0-0.566,0.252-0.566,0.566v2.798c0,0.315,0.255,0.566,0.566,0.566h2.802
	c0.314,0,0.566-0.252,0.566-0.566v-2.798C12.906,11.062,12.654,10.81,12.34,10.81z M11.774,13.609h-1.669v-1.666h1.669V13.609z"/>
<path d="M13.799,11.377v2.798c0,0.315,0.255,0.566,0.569,0.566h2.799c0.314,0,0.566-0.252,0.566-0.566v-2.798
	c0-0.314-0.252-0.566-0.566-0.566h-2.799C14.054,10.81,13.799,11.062,13.799,11.377z M14.931,11.943h1.669v1.666h-1.669V11.943z"/>
<path d="M7.57,15.604H4.768c-0.311,0-0.566,0.252-0.566,0.567v2.798c0,0.315,0.255,0.567,0.566,0.567H7.57
	c0.311,0,0.566-0.252,0.566-0.567v-2.798C8.136,15.856,7.881,15.604,7.57,15.604z M7.004,18.406H5.335v-1.672h1.669V18.406z"/>
<path d="M12.34,15.604H9.539c-0.311,0-0.566,0.252-0.566,0.567v2.798c0,0.315,0.255,0.567,0.566,0.567h2.802
	c0.314,0,0.566-0.252,0.566-0.567v-2.798C12.906,15.856,12.654,15.604,12.34,15.604z M11.774,18.406h-1.669v-1.672h1.669V18.406z"/>
<path d="M17.167,15.604h-2.799c-0.314,0-0.569,0.252-0.569,0.567v2.798c0,0.315,0.255,0.567,0.569,0.567h2.799
	c0.314,0,0.566-0.252,0.566-0.567v-2.798C17.733,15.856,17.481,15.604,17.167,15.604z M16.601,18.406h-1.669v-1.672h1.669V18.406z"
	/>
<path d="M7.57,20.398H4.768c-0.311,0-0.566,0.252-0.566,0.563v2.805c0,0.311,0.255,0.563,0.566,0.563H7.57
	c0.311,0,0.566-0.252,0.566-0.563v-2.805C8.136,20.65,7.881,20.398,7.57,20.398z M7.004,23.197H5.335v-1.666h1.669V23.197z"/>
<path d="M12.34,20.398H9.539c-0.311,0-0.566,0.252-0.566,0.563v2.805c0,0.311,0.255,0.563,0.566,0.563h2.802
	c0.314,0,0.566-0.252,0.566-0.563v-2.805C12.906,20.65,12.654,20.398,12.34,20.398z M11.774,23.197h-1.669v-1.666h1.669V23.197z"/>
<path d="M17.167,20.398h-2.799c-0.314,0-0.569,0.252-0.569,0.563v2.805c0,0.311,0.255,0.563,0.569,0.563h2.799
	c0.314,0,0.566-0.252,0.566-0.563v-2.805C17.733,20.65,17.481,20.398,17.167,20.398z M16.601,23.197h-1.669v-1.666h1.669V23.197z"/>
<polygon points="10.615,5.886 11.501,5.886 11.501,7.039 12.269,7.039 12.269,4.211 11.501,4.211 11.501,5.257 10.615,5.257 
	10.615,4.211 9.844,4.211 9.844,7.039 10.615,7.039 "/>















</svg>
