<?xml version="1.0" encoding="utf-8"?>
<svg version="1.1" xmlns="http://www.w3.org/2000/svg" xmlns:xlink="http://www.w3.org/1999/xlink" viewBox="0 0 57.59 57.421">
<g>
	<path d="M54.505,20.986c0-1.577-1.282-2.859-2.859-2.859h-9.503c0.063-0.526,0.098-1.059,0.098-1.596
		c0-7.414-6.032-13.445-13.446-13.445c-5.888,0-10.892,3.81-12.707,9.089h-5.879c-1.577,0-2.859,1.282-2.859,2.858v5.031H5.944
		c-0.826,0-1.612,0.359-2.157,0.987c-0.544,0.626-0.79,1.454-0.673,2.271l4.005,28.555c0.201,1.425,1.392,2.459,2.831,2.459h41.697
		c0.846,0,1.644-0.37,2.188-1.017c0.355-0.421,0.56-0.931,0.63-1.464c0.016-0.066,0.04-0.129,0.04-0.199V20.986z M51.646,52.613
		H9.949c-0.571,0-1.044-0.411-1.125-0.977L4.82,23.081c-0.046-0.323,0.052-0.651,0.269-0.901c0.217-0.249,0.528-0.393,0.855-0.393
		h6.182c0.33,0,0.643,0.144,0.858,0.394l3.982,4.571c0.542,0.628,1.33,0.987,2.16,0.987h2.499c0.002,0,0.004,0.001,0.006,0.001
		c0.003,0,0.007-0.001,0.01-0.001h26.129c0.557,0,1.027,0.396,1.118,0.941l3.875,22.612c0.057,0.328-0.034,0.662-0.248,0.916
		C52.3,52.465,51.984,52.613,51.646,52.613z M52.782,41.192l-2.193-12.798c-0.229-1.378-1.415-2.378-2.817-2.378H38.29
		c1.708-1.711,2.935-3.835,3.53-6.167h9.826c0.626,0,1.136,0.51,1.136,1.137V41.192z M35.661,26.016H21.93
		c-3.041-2.201-4.857-5.723-4.857-9.485c0-6.463,5.259-11.722,11.723-11.722s11.723,5.259,11.723,11.722
		C40.518,20.293,38.701,23.814,35.661,26.016z M19.301,26.016h-0.173c-0.33,0-0.643-0.144-0.858-0.394l-3.982-4.571
		c-0.542-0.628-1.33-0.987-2.16-0.987H9.073v-5.031c0-0.626,0.51-1.136,1.136-1.136h5.403c-0.17,0.852-0.263,1.732-0.263,2.634
		C15.349,20.125,16.806,23.518,19.301,26.016z"/>
	<path d="M33.825,13.02l-5.94,5.457c-0.452,0.412-1.141,0.396-1.572-0.033l-2.521-2.521c-0.163-0.163-0.379-0.253-0.609-0.253h0
		c-0.23,0-0.447,0.09-0.609,0.253c-0.163,0.162-0.252,0.379-0.252,0.609c0,0.229,0.09,0.446,0.252,0.608l2.521,2.521
		c0.542,0.542,1.259,0.84,2.021,0.84c0.717,0,1.404-0.269,1.935-0.756l5.94-5.456c0.35-0.321,0.373-0.867,0.052-1.218
		C34.72,12.722,34.175,12.698,33.825,13.02z"/>
</g>















</svg>
