<?xml version="1.0" encoding="utf-8"?>
<svg version="1.1" xmlns="http://www.w3.org/2000/svg" xmlns:xlink="http://www.w3.org/1999/xlink" viewBox="0 0 30.471 40.391">
<g>
	<path d="M15.236,22.967c-4.12,0-6.175-4.123-7.175-7.582c-0.29-1.008-0.096-2.065,0.532-2.902c0.627-0.833,1.585-1.311,2.629-1.311
		h8.026c1.044,0,2.002,0.478,2.629,1.311c0.629,0.837,0.823,1.894,0.532,2.902C21.411,18.844,19.356,22.967,15.236,22.967z
		 M11.222,12.306c-0.684,0-1.311,0.313-1.722,0.859c-0.413,0.549-0.54,1.243-0.349,1.905c0.891,3.085,2.669,6.762,6.085,6.762
		c3.415,0,5.193-3.677,6.084-6.762c0.191-0.662,0.064-1.357-0.349-1.905c-0.41-0.546-1.038-0.859-1.722-0.859H11.222z"/>
	<path d="M25.4,21.33h-2.764c-0.313,0-0.567-0.254-0.567-0.567c0-0.313,0.254-0.567,0.567-0.567h2.197v-7.139
		c0-5.32-4.231-9.697-9.431-9.759l-0.167-0.001l-0.169,0.001c-5.199,0.062-9.43,4.439-9.43,9.759v7.139h2.407
		c0.313,0,0.567,0.254,0.567,0.567c0,0.313-0.254,0.567-0.567,0.567H5.071c-0.313,0-0.567-0.254-0.567-0.567v-7.706
		c0-5.937,4.734-10.824,10.551-10.892l0.181-0.001l0.18,0.001c5.819,0.069,10.551,4.955,10.551,10.892v7.706
		C25.968,21.077,25.714,21.33,25.4,21.33z"/>
	<path d="M23.53,14.069c-0.313,0-0.567-0.254-0.567-0.567c0-4.359-3.406-7.946-7.592-7.996l-0.135-0.001l-0.134,0.001
		c-4.187,0.05-7.594,3.637-7.594,7.996c0,0.313-0.254,0.567-0.567,0.567c-0.313,0-0.567-0.254-0.567-0.567
		c0-4.977,3.909-9.072,8.712-9.13l0.149-0.001l0.15,0.001c4.803,0.058,8.711,4.153,8.711,9.13
		C24.097,13.816,23.843,14.069,23.53,14.069z"/>
	<path d="M12.341,19.276c-0.035,0-0.069-0.003-0.104-0.009l-4.431-0.82c-0.822-0.151-1.424-0.837-1.432-1.628v-3.82
		c0-0.313,0.254-0.567,0.567-0.567c0.313,0,0.567,0.254,0.567,0.567v3.802c0.003,0.253,0.22,0.479,0.505,0.532l4.431,0.819
		c0.308,0.057,0.511,0.353,0.454,0.66C12.847,19.085,12.609,19.276,12.341,19.276z"/>
	<path d="M23.53,16.24c-0.313,0-0.567-0.254-0.567-0.567v-2.674c0-0.313,0.254-0.567,0.567-0.567c0.313,0,0.567,0.254,0.567,0.567
		v2.674C24.097,15.987,23.843,16.24,23.53,16.24z"/>
	<path d="M27.74,38.227H2.731c-0.313,0-0.567-0.254-0.567-0.567v-5.67c0-3.814,3.103-6.918,6.918-6.918h0.391
		c0.918,0,1.715-0.596,1.984-1.483c0.262-0.865,0.357-1.574,0.277-2.052c-0.052-0.309,0.155-0.601,0.464-0.654
		c0.309-0.052,0.601,0.155,0.654,0.464c0.112,0.659,0.008,1.524-0.309,2.57c-0.415,1.368-1.648,2.288-3.069,2.288H9.081
		c-3.189,0-5.784,2.595-5.784,5.783v5.104h23.876V31.99c0-3.189-2.595-5.783-5.784-5.783h-0.401c-1.41,0-2.675-0.949-3.075-2.309
		c-0.306-1.037-0.405-1.896-0.294-2.55c0.052-0.309,0.347-0.517,0.654-0.464c0.308,0.052,0.517,0.345,0.464,0.654
		c-0.081,0.476,0.01,1.182,0.264,2.041c0.264,0.894,1.062,1.494,1.987,1.494h0.401c3.814,0,6.918,3.103,6.918,6.918v5.67
		C28.307,37.973,28.053,38.227,27.74,38.227z"/>
	<path d="M9.036,38.227c-0.313,0-0.567-0.254-0.567-0.567v-4.271c0-0.313,0.254-0.567,0.567-0.567c0.313,0,0.567,0.254,0.567,0.567
		v4.271C9.603,37.973,9.349,38.227,9.036,38.227z"/>
	<path d="M21.435,38.227c-0.313,0-0.567-0.254-0.567-0.567v-4.271c0-0.313,0.254-0.567,0.567-0.567c0.313,0,0.567,0.254,0.567,0.567
		v4.271C22.003,37.973,21.748,38.227,21.435,38.227z"/>
</g>















</svg>
