<?xml version="1.0" encoding="utf-8"?>
<svg version="1.1" xmlns="http://www.w3.org/2000/svg" xmlns:xlink="http://www.w3.org/1999/xlink" viewBox="0 0 57.228 57.228">
<g>
	<path d="M28.614,3.066c-14.087,0-25.548,11.461-25.548,25.548c0,14.088,11.461,25.549,25.548,25.549s25.548-11.461,25.548-25.549
		C54.162,14.527,42.702,3.066,28.614,3.066z M52.439,28.614c0,13.137-10.688,23.825-23.825,23.825
		c-13.137,0-23.825-10.688-23.825-23.825S15.477,4.789,28.614,4.789C41.751,4.789,52.439,15.477,52.439,28.614z"/>
	<path d="M45.292,19.993c1.38,2.679,2.081,5.574,2.081,8.605c0,5.063-1.984,9.809-5.586,13.361
		c-0.337,0.334-0.341,0.881-0.007,1.219c0.163,0.165,0.381,0.256,0.613,0.256c0.228,0,0.442-0.088,0.605-0.247
		c3.933-3.88,6.099-9.061,6.099-14.589c0-3.308-0.764-6.469-2.272-9.395c-0.105-0.205-0.284-0.357-0.503-0.427
		c-0.219-0.072-0.453-0.052-0.657,0.055C45.241,19.048,45.075,19.569,45.292,19.993z"/>
	<path d="M28.614,47.373c-10.344,0-18.759-8.416-18.759-18.76S18.27,9.855,28.614,9.855c5.666,0,10.97,2.521,14.551,6.916
		c0.146,0.179,0.352,0.29,0.581,0.312c0.231,0.025,0.453-0.044,0.631-0.188c0.179-0.146,0.29-0.352,0.313-0.58
		c0.024-0.229-0.043-0.454-0.189-0.633c-3.91-4.799-9.701-7.551-15.887-7.551c-11.294,0-20.482,9.188-20.482,20.482
		s9.188,20.482,20.482,20.482c0.475,0,0.861-0.387,0.861-0.861S29.089,47.373,28.614,47.373z"/>
	<path d="M39.496,44.217c-0.226-0.048-0.456-0.005-0.649,0.12c-1.983,1.287-4.149,2.178-6.438,2.649
		c-0.226,0.047-0.419,0.178-0.546,0.371c-0.126,0.192-0.17,0.422-0.124,0.647c0.082,0.398,0.437,0.688,0.844,0.688
		c0.058,0,0.116-0.006,0.174-0.018c2.5-0.516,4.865-1.488,7.028-2.892c0.193-0.126,0.326-0.318,0.374-0.544s0.005-0.456-0.12-0.648
		C39.913,44.398,39.721,44.265,39.496,44.217z"/>
	<path d="M36.233,24.378c0-2.104-0.838-4.062-2.359-5.513c-1.521-1.453-3.515-2.192-5.623-2.099
		c-1.889,0.089-3.671,0.879-5.018,2.226c-1.347,1.346-2.139,3.127-2.229,5.017c-0.038,0.793,0.046,1.58,0.25,2.34
		c0.336,1.256,1.63,2.002,2.89,1.671c0.609-0.164,1.119-0.554,1.434-1.099c0.315-0.546,0.399-1.182,0.236-1.792
		c-0.077-0.288-0.109-0.59-0.094-0.896c0.07-1.475,1.28-2.683,2.753-2.752c0.795-0.038,1.564,0.245,2.144,0.798
		c0.579,0.554,0.898,1.299,0.898,2.099c0,1.347-0.913,2.506-2.219,2.819c-1.79,0.429-3.04,2.025-3.04,3.882v3.327
		c0,1.302,1.059,2.36,2.36,2.36s2.359-1.059,2.359-2.36v-2.782C34.129,30.605,36.233,27.721,36.233,24.378z M29.25,31.079v3.327
		c0,0.351-0.286,0.637-0.636,0.637c-0.351,0-0.637-0.286-0.637-0.637v-3.327c0-1.057,0.707-1.963,1.718-2.205
		c2.085-0.5,3.541-2.35,3.541-4.496c0-1.276-0.508-2.465-1.432-3.345c-0.864-0.824-1.997-1.278-3.191-1.278
		c-0.073,0-0.147,0.002-0.224,0.005c-2.352,0.111-4.282,2.04-4.394,4.391c-0.023,0.482,0.027,0.962,0.151,1.425
		c0.044,0.164,0.021,0.335-0.064,0.482c-0.085,0.147-0.222,0.253-0.386,0.296c-0.164,0.044-0.336,0.021-0.483-0.063
		s-0.252-0.223-0.296-0.386c-0.157-0.589-0.222-1.199-0.193-1.813c0.069-1.46,0.682-2.837,1.725-3.88
		c1.043-1.042,2.422-1.654,3.882-1.722c1.634-0.079,3.174,0.499,4.352,1.622c1.177,1.124,1.826,2.639,1.826,4.267
		c0,2.738-1.857,5.095-4.517,5.732C29.562,30.214,29.25,30.621,29.25,31.079z"/>
	<path d="M28.614,37.456c-1.181,0-2.142,0.961-2.142,2.142c0,1.182,0.961,2.143,2.142,2.143s2.142-0.961,2.142-2.143
		C30.756,38.417,29.795,37.456,28.614,37.456z M29.033,39.598c0,0.23-0.188,0.419-0.419,0.419s-0.419-0.188-0.419-0.419
		s0.188-0.419,0.419-0.419S29.033,39.368,29.033,39.598z"/>
</g>















</svg>
