<?xml version="1.0" encoding="utf-8"?>
<svg version="1.1" xmlns="http://www.w3.org/2000/svg" xmlns:xlink="http://www.w3.org/1999/xlink" viewBox="0 0 50.675 57.412">
<g>
	<path d="M44.085,18.899c0.003-0.003,0.005-0.008,0.008-0.012c0.004-0.004,0.009-0.005,0.013-0.009l2.657-2.656
		c0.54-0.54,0.836-1.259,0.836-2.022c0-0.766-0.297-1.483-0.837-2.022l-1.677-1.678c-1.079-1.08-2.967-1.08-4.045,0l-2.656,2.656
		c-0.003,0.003-0.004,0.008-0.008,0.011c-0.004,0.004-0.009,0.005-0.012,0.008l-0.107,0.107V5.935c0-1.577-1.282-2.859-2.859-2.859
		H5.935c-1.577,0-2.859,1.282-2.859,2.859v45.542c0,1.577,1.282,2.859,2.859,2.859h32.769h0.689h3.036
		c1.577,0,2.859-1.282,2.859-2.859v-7.001c0-1.577-1.283-2.859-2.859-2.859h-4.172V24.724L44.085,18.899z M39.392,52.613
		c-0.626,0-1.136-0.51-1.136-1.136V43.34h4.172c0.626,0,1.136,0.51,1.136,1.136v7.001c0,0.626-0.51,1.136-1.136,1.136H39.392z
		 M36.768,52.613H5.935c-0.626,0-1.136-0.51-1.136-1.136V5.935c0-0.626,0.51-1.136,1.136-1.136h29.463
		c0.626,0,1.136,0.51,1.136,1.136v9.071L22.689,28.85c-0.002,0.001-0.003,0.003-0.004,0.005c-0.001,0.001-0.002,0.001-0.003,0.002
		c-0.002,0.001-0.002,0.004-0.004,0.005c-0.429,0.421-0.757,0.982-0.922,1.58l-1.648,5.643c-0.088,0.303-0.005,0.63,0.217,0.85
		c0.16,0.161,0.382,0.254,0.61,0.254c0.079,0,0.159-0.011,0.242-0.034l5.647-1.649c0.611-0.183,1.144-0.497,1.581-0.936l8.127-8.123
		v25.031C36.533,51.872,36.613,52.256,36.768,52.613z M43.476,17.071l-3.285-3.286l2.067-2.067c0.43-0.428,1.18-0.428,1.608,0
		l1.678,1.678c0.214,0.214,0.332,0.5,0.332,0.805s-0.118,0.59-0.332,0.804L43.476,17.071z M36.802,23.741
		c-0.01,0.009-0.018,0.018-0.028,0.027l-8.974,8.969l-1.037-1.032l7.883-7.883c0.164-0.163,0.253-0.379,0.253-0.61
		c0-0.23-0.09-0.446-0.252-0.608c-0.325-0.326-0.895-0.327-1.219,0l-7.886,7.886l-1.031-1.027l14.46-14.46l3.285,3.285
		L36.802,23.741z M23.447,30.835l2.987,2.974c-0.034,0.012-0.063,0.032-0.097,0.042l-4.133,1.207l1.21-4.145
		C23.422,30.886,23.438,30.862,23.447,30.835z"/>
	<path d="M37.794,18.596c-0.25-0.021-0.449,0.09-0.611,0.254l-1.638,1.647c-0.163,0.163-0.251,0.38-0.251,0.61
		c0.001,0.23,0.091,0.447,0.255,0.609c0.163,0.161,0.378,0.25,0.607,0.25c0.231,0,0.448-0.09,0.611-0.254l1.638-1.648
		c0.334-0.337,0.333-0.884-0.004-1.219C38.239,18.685,38.023,18.596,37.794,18.596z"/>
	<path d="M10.778,19.321h3.166c1.577,0,2.859-1.282,2.859-2.859v-3.246c0-1.576-1.283-2.858-2.859-2.858h-3.166
		c-1.577,0-2.859,1.282-2.859,2.858v3.246C7.919,18.039,9.202,19.321,10.778,19.321z M9.643,16.461v-3.246
		c0-0.626,0.51-1.136,1.136-1.136h3.166c0.626,0,1.136,0.51,1.136,1.136v3.246c0,0.626-0.51,1.136-1.136,1.136h-3.166
		C10.152,17.597,9.643,17.087,9.643,16.461z"/>
	<path d="M8.781,26.511h11.436c0.475,0,0.862-0.387,0.862-0.861s-0.387-0.861-0.862-0.861H8.781c-0.475,0-0.861,0.387-0.861,0.861
		S8.306,26.511,8.781,26.511z"/>
	<path d="M15.672,29.751c-0.475,0-0.862,0.387-0.862,0.862c0,0.475,0.387,0.861,0.862,0.861h2.037c0.475,0,0.862-0.387,0.862-0.861
		c0-0.476-0.387-0.862-0.862-0.862H15.672z"/>
	<path d="M8.781,31.475h3.676c0.475,0,0.861-0.387,0.861-0.861c0-0.476-0.386-0.862-0.861-0.862H8.781
		c-0.475,0-0.861,0.387-0.861,0.862C7.919,31.088,8.306,31.475,8.781,31.475z"/>
	<path d="M8.781,36.449h6.941c0.475,0,0.862-0.387,0.862-0.861s-0.387-0.861-0.862-0.861H8.781c-0.475,0-0.861,0.387-0.861,0.861
		S8.306,36.449,8.781,36.449z"/>
	<path d="M32.341,39.689H8.781c-0.475,0-0.861,0.387-0.861,0.862c0,0.475,0.386,0.861,0.861,0.861h23.561
		c0.475,0,0.861-0.387,0.861-0.861C33.203,40.076,32.816,39.689,32.341,39.689z"/>
	<path d="M23.982,44.664H8.781c-0.475,0-0.861,0.387-0.861,0.861s0.386,0.861,0.861,0.861h15.201c0.475,0,0.861-0.387,0.861-0.861
		S24.457,44.664,23.982,44.664z"/>
</g>















</svg>
