<?xml version="1.0" encoding="utf-8"?>
<svg version="1.1" xmlns="http://www.w3.org/2000/svg" xmlns:xlink="http://www.w3.org/1999/xlink" viewBox="0 0 39.025 38.409">
<path d="M14.132,2.091H5.275c-1.755,0-3.184,1.429-3.184,3.184V21.32v1.684c0,1.755,1.429,3.181,3.184,3.181h8.857
	c1.755,0,3.182-1.426,3.182-3.181V21.32V5.275C17.314,3.52,15.887,2.091,14.132,2.091z M3.223,5.838h12.96v14.915H3.223V5.838z
	 M5.275,3.223h8.857c0.933,0,1.715,0.63,1.962,1.485H3.312C3.56,3.853,4.34,3.223,5.275,3.223z M16.183,23.004
	c0,1.13-0.921,2.049-2.052,2.049H5.275c-1.133,0-2.052-0.919-2.052-2.049v-1.118h12.96V23.004z"/>
<path d="M8.367,23.923h2.671c0.313,0,0.567-0.255,0.567-0.566c0-0.311-0.254-0.566-0.567-0.566H8.367
	c-0.313,0-0.566,0.255-0.566,0.566C7.801,23.668,8.054,23.923,8.367,23.923z"/>
<path d="M21.71,15.405v16.048v1.681c0,1.755,1.427,3.184,3.183,3.184h8.859c1.755,0,3.184-1.429,3.184-3.184v-1.681V15.405
	c0-1.755-1.429-3.181-3.184-3.181h-8.859C23.137,12.224,21.71,13.65,21.71,15.405z M22.84,15.971h12.962v14.915H22.84V15.971z
	 M35.802,33.134c0,1.13-0.921,2.052-2.052,2.052h-8.859c-1.13,0-2.052-0.922-2.052-2.052v-1.115h12.962V33.134z M35.712,14.839
	H22.93c0.248-0.853,1.03-1.482,1.962-1.482h8.859C34.683,13.357,35.464,13.986,35.712,14.839z"/>
<path d="M27.984,34.056h2.674c0.311,0,0.566-0.255,0.566-0.566c0-0.314-0.255-0.566-0.566-0.566h-2.674
	c-0.312,0-0.565,0.252-0.565,0.566C27.419,33.801,27.673,34.056,27.984,34.056z"/>
<path d="M14.394,10.226c-0.001-0.003-0.005-0.005-0.006-0.008c-0.039-0.095-0.105-0.171-0.183-0.232
	c-0.016-0.013-0.034-0.024-0.052-0.035c-0.085-0.052-0.18-0.09-0.288-0.09H5.542c-0.106,0-0.202,0.038-0.288,0.089
	C5.235,9.962,5.217,9.974,5.2,9.987c-0.078,0.061-0.144,0.137-0.183,0.233c-0.001,0.003-0.004,0.004-0.005,0.006
	c-0.003,0.009,0.001,0.018-0.002,0.026c-0.018,0.056-0.035,0.113-0.035,0.175v5.74c0,0.315,0.253,0.566,0.566,0.566h8.323
	c0.313,0,0.565-0.252,0.565-0.566v-5.74c0-0.059-0.017-0.113-0.033-0.166C14.393,10.249,14.399,10.237,14.394,10.226z
	 M13.299,15.601H6.108v-3.905l3.217,2.882c0.108,0.098,0.243,0.148,0.376,0.148c0.136,0,0.273-0.05,0.379-0.148l3.218-2.884V15.601z
	 M9.701,13.398l-2.68-2.404h5.363L9.701,13.398z"/>
<path d="M24.136,3.558c-0.151-0.104-0.346-0.131-0.519-0.068l-3.48,1.257c-0.221,0.08-0.369,0.285-0.374,0.522
	c-0.006,0.231,0.133,0.445,0.35,0.534l3.482,1.432c0.069,0.029,0.142,0.044,0.215,0.044c0.11,0,0.219-0.036,0.314-0.098
	c0.157-0.104,0.252-0.282,0.252-0.471V5.85h0.213c0.639,0,1.159,0.522,1.159,1.159v2.73c0,0.315,0.253,0.566,0.566,0.566
	c0.311,0,0.566-0.252,0.566-0.566v-2.73c0-1.263-1.029-2.291-2.292-2.291h-0.213V4.024C24.376,3.837,24.287,3.665,24.136,3.558z
	 M23.244,5.85v0.018L23.2,5.85l-1.17-0.483l-0.129-0.053l0.115-0.041l1.228-0.442V5.85z"/>
<path d="M18.886,32.078l-3.482-1.432c-0.175-0.071-0.375-0.053-0.531,0.053c-0.157,0.107-0.25,0.282-0.25,0.468v0.863h-0.213
	c-0.641,0-1.159-0.519-1.159-1.159v-2.73c0-0.314-0.255-0.567-0.566-0.567c-0.314,0-0.566,0.252-0.566,0.567v2.73
	c0,1.263,1.029,2.292,2.292,2.292h0.213v0.697c0,0.184,0.089,0.355,0.24,0.462c0.096,0.068,0.21,0.101,0.326,0.101
	c0.065,0,0.128-0.009,0.193-0.032l3.481-1.257c0.219-0.08,0.368-0.287,0.373-0.519C19.242,32.381,19.102,32.167,18.886,32.078z
	 M16.983,32.61l-1.228,0.444v-1.023v-0.015l0.036,0.015l1.177,0.484l0.129,0.053L16.983,32.61z"/>
<path d="M32.814,18.835l-4.609,6.46l-1.725-1.64c-0.227-0.213-0.586-0.207-0.801,0.021c-0.216,0.228-0.206,0.584,0.021,0.8
	l2.198,2.087c0.105,0.101,0.246,0.157,0.388,0.157c0.019,0,0.039,0,0.056-0.003c0.163-0.015,0.311-0.101,0.406-0.234l4.987-6.994
	c0.181-0.252,0.121-0.608-0.134-0.789C33.349,18.521,32.995,18.58,32.814,18.835z"/>















</svg>
