<?xml version="1.0" encoding="utf-8"?>
<svg version="1.1" xmlns="http://www.w3.org/2000/svg" xmlns:xlink="http://www.w3.org/1999/xlink" viewBox="0 0 25.348 20.939">
<path d="M1.358,7.858c0,0.806,0.656,1.463,1.463,1.463c0.807,0,1.463-0.657,1.463-1.463c0-0.204-0.042-0.398-0.118-0.575l3.3-2.562
	c0.082,0.07,0.166,0.135,0.26,0.191c-1.353,2.164-1.375,4.922-0.072,7.107l-4.715,4.715c-0.65,0.65-0.65,1.709,0,2.359
	c0.315,0.315,0.734,0.489,1.179,0.489c0.446,0,0.864-0.173,1.179-0.489l4.714-4.714c1.047,0.627,2.243,0.969,3.495,0.969
	c1.822,0,3.536-0.71,4.824-1.998c1.225-1.225,1.919-2.835,1.985-4.556l0.524,0.652c-0.249,0.306-0.405,0.691-0.405,1.116
	c0,0.98,0.797,1.778,1.778,1.778c0.98,0,1.778-0.798,1.778-1.778c0-0.98-0.798-1.778-1.778-1.778c-0.288,0-0.556,0.075-0.796,0.197
	l-0.691-0.859c0.437-0.476,0.692-1.094,0.692-1.763c0-1.45-1.18-2.63-2.63-2.63c-0.127,0-0.259,0.028-0.389,0.048
	c-0.023-0.024-0.043-0.05-0.067-0.074c-2.133-2.133-5.337-2.551-7.895-1.264c-0.318-0.644-0.978-1.08-1.722-1.08
	c-1.062,0-1.926,0.864-1.926,1.926c0,0.309,0.093,0.591,0.225,0.852L3.707,6.701C3.46,6.512,3.156,6.394,2.821,6.394
	C2.014,6.394,1.358,7.051,1.358,7.858z M23.249,10.561c0,0.572-0.465,1.037-1.037,1.037s-1.037-0.465-1.037-1.037
	c0-0.572,0.465-1.037,1.037-1.037S23.249,9.99,23.249,10.561z M9.382,13.961l-4.608,4.608c-0.35,0.35-0.961,0.35-1.311,0
	c-0.362-0.362-0.362-0.95,0-1.311l4.608-4.608c0.019,0.026,0.044,0.047,0.063,0.073c0.166,0.212,0.342,0.419,0.537,0.614
	c0.004,0.004,0.007,0.009,0.011,0.013c0.004,0.004,0.008,0.007,0.012,0.011c0.197,0.196,0.406,0.374,0.622,0.542
	C9.339,13.922,9.359,13.943,9.382,13.961z M20.675,6.358c0,0.444-0.152,0.861-0.423,1.192c0-0.001-0.001-0.002-0.001-0.004
	c-0.16-1.115-0.59-2.161-1.26-3.066C19.936,4.582,20.675,5.385,20.675,6.358z M13.506,2.447c1.557,0,3.114,0.593,4.3,1.778
	c0.06,0.06,0.112,0.125,0.169,0.187c0.001,0.001,0.001,0.003,0.002,0.004c0.978,1.064,1.546,2.444,1.599,3.887
	c0.003,0.075,0.011,0.148,0.011,0.223c0,1.624-0.632,3.151-1.781,4.3c-1.149,1.149-2.676,1.781-4.3,1.781
	c-1.21,0-2.366-0.352-3.351-1.006c-0.339-0.225-0.659-0.485-0.949-0.776c-2.371-2.371-2.371-6.229,0-8.6
	c0.238-0.238,0.512-0.452,0.802-0.654c0.098-0.068,0.196-0.137,0.299-0.201C11.284,2.764,12.392,2.447,13.506,2.447z M8.713,2.099
	c0.474,0,0.896,0.285,1.082,0.704C9.401,3.059,9.027,3.357,8.682,3.702C8.487,3.897,8.31,4.104,8.143,4.316
	C7.767,4.112,7.528,3.723,7.528,3.284C7.528,2.631,8.059,2.099,8.713,2.099z M2.821,8.58c-0.398,0-0.722-0.324-0.722-0.722
	c0-0.398,0.324-0.722,0.722-0.722c0.398,0,0.722,0.324,0.722,0.722C3.543,8.256,3.219,8.58,2.821,8.58z"/>
<path d="M8.462,8.526c0,1.347,0.525,2.614,1.477,3.567c0.984,0.984,2.275,1.475,3.567,1.475c1.291,0,2.583-0.492,3.567-1.475
	c0.976-0.976,1.465-2.257,1.472-3.54c0-0.007,0.005-0.013,0.005-0.02c0.001-0.973-0.279-1.901-0.79-2.703
	c-0.017-0.026-0.026-0.056-0.044-0.082c-0.182-0.274-0.391-0.532-0.628-0.771c-0.001-0.001-0.002-0.001-0.003-0.002
	c-0.005-0.005-0.008-0.011-0.013-0.016c-0.953-0.953-2.219-1.478-3.567-1.478c-1.348,0-2.615,0.525-3.567,1.478
	C8.986,5.912,8.462,7.178,8.462,8.526z M16.549,11.569c-1.678,1.678-4.409,1.677-6.086,0c-0.813-0.813-1.26-1.894-1.26-3.043
	c0-0.904,0.285-1.759,0.798-2.481l0.884,1.416c-0.017,0.015-0.028,0.033-0.044,0.048c-0.065,0.06-0.121,0.126-0.178,0.193
	c-0.043,0.051-0.089,0.1-0.128,0.155c-0.048,0.068-0.086,0.142-0.126,0.215c-0.033,0.06-0.071,0.117-0.098,0.18
	c-0.038,0.087-0.063,0.178-0.089,0.27c-0.016,0.055-0.039,0.108-0.051,0.164c-0.032,0.152-0.05,0.308-0.05,0.467
	c0,1.246,1.014,2.26,2.26,2.26s2.259-1.014,2.259-2.26c0-0.177-0.026-0.35-0.066-0.52c-0.004-0.016-0.002-0.032-0.006-0.048
	l1.975-0.879c0.286,0.474,0.716,0.853,1.243,1.072C17.724,9.795,17.324,10.795,16.549,11.569z M12.379,7.636
	c0.621,0,1.154,0.375,1.389,0.91c0.037,0.083,0.063,0.169,0.084,0.256c0.003,0.014,0.01,0.027,0.013,0.041
	c0.022,0.102,0.033,0.206,0.033,0.312c0,0.837-0.681,1.519-1.518,1.519s-1.519-0.681-1.519-1.519c0-0.12,0.018-0.236,0.045-0.349
	c0.008-0.035,0.021-0.068,0.032-0.103c0.024-0.077,0.054-0.153,0.09-0.225c0.017-0.034,0.035-0.069,0.055-0.101
	c0.046-0.077,0.1-0.149,0.16-0.217c0.016-0.018,0.029-0.038,0.046-0.056c0.082-0.084,0.174-0.16,0.276-0.225
	C11.8,7.726,12.079,7.636,12.379,7.636z M17.142,6.237c0.137,0.218,0.253,0.444,0.347,0.678c0.094,0.232,0.167,0.472,0.219,0.718
	c0.01,0.045,0.019,0.091,0.027,0.136c0.01,0.054,0.008,0.108,0.016,0.162c-0.519-0.343-0.853-0.929-0.853-1.574
	c0-0.132,0.017-0.264,0.045-0.393c0.032,0.043,0.072,0.081,0.102,0.125C17.078,6.138,17.11,6.187,17.142,6.237z M13.506,4.223
	c1.077,0,2.085,0.406,2.878,1.125c-0.136,0.322-0.227,0.661-0.227,1.011c0,0.23,0.038,0.452,0.096,0.667l-1.99,0.886
	c-0.405-0.611-1.097-1.016-1.883-1.016c-0.307,0-0.599,0.063-0.866,0.174l-1.011-1.618C11.311,4.66,12.374,4.223,13.506,4.223z"/>















</svg>
