<?xml version="1.0" encoding="utf-8"?>
<svg version="1.1" xmlns="http://www.w3.org/2000/svg" xmlns:xlink="http://www.w3.org/1999/xlink" viewBox="0 0 55.572 57.315">
<g>
	<path d="M25.084,11.707h9.588c0.475,0,0.862-0.387,0.862-0.861s-0.387-0.861-0.862-0.861h-9.588c-0.475,0-0.861,0.387-0.861,0.861
		S24.609,11.707,25.084,11.707z"/>
	<path d="M25.084,17.271h9.588c0.475,0,0.862-0.387,0.862-0.861c0-0.476-0.387-0.862-0.862-0.862h-9.588
		c-0.475,0-0.861,0.387-0.861,0.862C24.223,16.884,24.609,17.271,25.084,17.271z"/>
	<path d="M25.084,22.833h9.588c0.475,0,0.862-0.387,0.862-0.861s-0.387-0.861-0.862-0.861h-9.588c-0.475,0-0.861,0.387-0.861,0.861
		S24.609,22.833,25.084,22.833z"/>
	<path d="M25.084,28.397h9.588c0.475,0,0.862-0.387,0.862-0.862c0-0.475-0.387-0.861-0.862-0.861h-9.588
		c-0.475,0-0.861,0.387-0.861,0.861C24.223,28.01,24.609,28.397,25.084,28.397z"/>
	<path d="M25.084,33.959h9.588c0.475,0,0.862-0.387,0.862-0.861s-0.387-0.861-0.862-0.861h-9.588c-0.475,0-0.861,0.387-0.861,0.861
		S24.609,33.959,25.084,33.959z"/>
	<path d="M9.039,21.11c-0.475,0-0.861,0.387-0.861,0.861v2.954c0,0.476,0.386,0.862,0.861,0.862s0.862-0.387,0.862-0.862v-2.954
		C9.901,21.497,9.514,21.11,9.039,21.11z"/>
	<path d="M15.447,21.11c-0.475,0-0.861,0.387-0.861,0.861v2.954c0,0.476,0.386,0.862,0.861,0.862s0.862-0.387,0.862-0.862v-2.954
		C16.309,21.497,15.922,21.11,15.447,21.11z"/>
	<path d="M9.039,28.283c-0.475,0-0.861,0.387-0.861,0.861v2.954c0,0.476,0.386,0.862,0.861,0.862s0.862-0.387,0.862-0.862v-2.954
		C9.901,28.67,9.514,28.283,9.039,28.283z"/>
	<path d="M15.447,28.283c-0.475,0-0.861,0.387-0.861,0.861v2.954c0,0.476,0.386,0.862,0.861,0.862s0.862-0.387,0.862-0.862v-2.954
		C16.309,28.67,15.922,28.283,15.447,28.283z"/>
	<path d="M9.039,35.456c-0.475,0-0.861,0.387-0.861,0.861v2.954c0,0.475,0.386,0.861,0.861,0.861s0.862-0.387,0.862-0.861v-2.954
		C9.901,35.843,9.514,35.456,9.039,35.456z"/>
	<path d="M15.447,35.456c-0.475,0-0.861,0.387-0.861,0.861v2.954c0,0.475,0.386,0.861,0.861,0.861s0.862-0.387,0.862-0.861v-2.954
		C16.309,35.843,15.922,35.456,15.447,35.456z"/>
	<path d="M9.039,42.628c-0.475,0-0.861,0.387-0.861,0.862v2.954c0,0.475,0.386,0.861,0.861,0.861s0.862-0.387,0.862-0.861V43.49
		C9.901,43.015,9.514,42.628,9.039,42.628z"/>
	<path d="M15.447,42.628c-0.475,0-0.861,0.387-0.861,0.862v2.954c0,0.475,0.386,0.861,0.861,0.861s0.862-0.387,0.862-0.861V43.49
		C16.309,43.015,15.922,42.628,15.447,42.628z"/>
	<path d="M51.406,35.039l-11.089-8.69V6.429c0-1.852-1.506-3.358-3.358-3.358H22.797c-1.852,0-3.358,1.507-3.358,3.358v6.722H5.93
		c-1.577,0-2.859,1.282-2.859,2.859v35.375c0,1.577,1.283,2.859,2.859,2.859h16.868h0.289h13.872c0.114,0,0.222-0.022,0.333-0.034
		c0.056,0.011,0.107,0.034,0.166,0.034h12.185c1.577,0,2.859-1.282,2.859-2.859V37.29C52.501,36.405,52.102,35.585,51.406,35.039z
		 M19.882,52.521H5.93c-0.626,0-1.136-0.51-1.136-1.136V16.01c0-0.627,0.51-1.137,1.136-1.137h13.509v36.013
		C19.439,51.482,19.608,52.035,19.882,52.521z M21.162,50.886V6.429c0-0.901,0.734-1.635,1.635-1.635h14.161
		c0.901,0,1.635,0.733,1.635,1.635v44.457c0,0.901-0.734,1.635-1.635,1.635h-1.425V40.658c0-1.577-1.283-2.859-2.859-2.859h-5.593
		c-1.577,0-2.859,1.282-2.859,2.859v11.862h-1.136h-0.289C21.896,52.521,21.162,51.787,21.162,50.886z M25.946,40.658
		c0-0.626,0.51-1.136,1.136-1.136h1.935v12.998h-3.07V40.658z M30.74,39.523h1.935c0.626,0,1.136,0.51,1.136,1.136v11.862H30.74
		V39.523z M40.317,50.886V28.539l10.025,7.857c0.277,0.217,0.436,0.543,0.436,0.895v14.095c0,0.626-0.51,1.136-1.136,1.136h-9.768
		C40.148,52.035,40.317,51.482,40.317,50.886z"/>
	<path d="M43.503,37.799c-0.475,0-0.861,0.387-0.861,0.861v1.415c0,0.476,0.386,0.862,0.861,0.862s0.862-0.387,0.862-0.862V38.66
		C44.365,38.186,43.978,37.799,43.503,37.799z"/>
	<path d="M47.479,37.799c-0.475,0-0.861,0.387-0.861,0.861v1.415c0,0.476,0.386,0.862,0.861,0.862s0.862-0.387,0.862-0.862V38.66
		C48.34,38.186,47.954,37.799,47.479,37.799z"/>
	<path d="M43.503,46.984c-0.475,0-0.861,0.387-0.861,0.861v1.415c0,0.475,0.386,0.861,0.861,0.861s0.862-0.387,0.862-0.861v-1.415
		C44.365,47.371,43.978,46.984,43.503,46.984z"/>
	<path d="M47.479,46.984c-0.475,0-0.861,0.387-0.861,0.861v1.415c0,0.475,0.386,0.861,0.861,0.861s0.862-0.387,0.862-0.861v-1.415
		C48.34,47.371,47.954,46.984,47.479,46.984z"/>
	<path d="M43.503,42.392c-0.475,0-0.861,0.387-0.861,0.861v1.415c0,0.475,0.386,0.861,0.861,0.861s0.862-0.387,0.862-0.861v-1.415
		C44.365,42.778,43.978,42.392,43.503,42.392z"/>
	<path d="M47.479,42.392c-0.475,0-0.861,0.387-0.861,0.861v1.415c0,0.475,0.386,0.861,0.861,0.861s0.862-0.387,0.862-0.861v-1.415
		C48.34,42.778,47.954,42.392,47.479,42.392z"/>
</g>















</svg>
