<?xml version="1.0" encoding="utf-8"?>
<svg version="1.1" xmlns="http://www.w3.org/2000/svg" xmlns:xlink="http://www.w3.org/1999/xlink" viewBox="0 0 53.178 57.401">
<g>
	<path d="M46.745,4.916H27.451V3.936c0-0.475-0.387-0.861-0.862-0.861c-0.475,0-0.861,0.387-0.861,0.861v0.979H6.433
		c-1.852,0-3.358,1.507-3.358,3.358v26.377c0,1.852,1.506,3.358,3.358,3.358h11.173L12.47,53.187
		c-0.074,0.219-0.059,0.453,0.044,0.66c0.103,0.206,0.278,0.359,0.495,0.433c0.091,0.03,0.184,0.046,0.277,0.046
		c0.37,0,0.698-0.235,0.816-0.586l1.765-5.217h9.86v4.941c0,0.475,0.387,0.861,0.861,0.861c0.476,0,0.862-0.387,0.862-0.861v-4.941
		h9.86l1.765,5.217c0.118,0.351,0.446,0.586,0.816,0.586c0.094,0,0.188-0.016,0.275-0.046c0.218-0.073,0.395-0.227,0.497-0.434
		c0.103-0.206,0.118-0.44,0.044-0.658L35.573,38.01h11.172c1.852,0,3.358-1.507,3.358-3.358V8.274
		C50.103,6.423,48.597,4.916,46.745,4.916z M6.433,36.286c-0.81,0-1.48-0.594-1.608-1.369h41.557c0.475,0,0.861-0.387,0.861-0.861
		s-0.387-0.861-0.861-0.861H4.798V8.274c0-0.901,0.734-1.636,1.635-1.636h40.312c0.901,0,1.635,0.734,1.635,1.636v26.377
		c0,0.901-0.733,1.635-1.635,1.635H6.433z M25.727,38.01v8.791h-9.277l2.975-8.791H25.727z M27.451,38.01h6.302l2.975,8.791h-9.277
		V38.01z"/>
	<path d="M8.963,12.219h10.366c0.476,0,0.862-0.387,0.862-0.861s-0.387-0.861-0.862-0.861H8.963c-0.476,0-0.862,0.387-0.862,0.861
		S8.487,12.219,8.963,12.219z"/>
	<path d="M8.963,15.415H26.39c0.475,0,0.861-0.387,0.861-0.861s-0.387-0.861-0.861-0.861H8.963c-0.476,0-0.862,0.387-0.862,0.861
		S8.487,15.415,8.963,15.415z"/>
	<path d="M15.669,16.888H8.963c-0.476,0-0.862,0.387-0.862,0.862c0,0.475,0.386,0.861,0.862,0.861h6.706
		c0.476,0,0.862-0.387,0.862-0.861C16.531,17.274,16.144,16.888,15.669,16.888z"/>
	<path d="M20.964,25.04c-0.476,0-0.862,0.387-0.862,0.861v4.421c0,0.475,0.387,0.861,0.862,0.861c0.475,0,0.861-0.387,0.861-0.861
		v-4.421C21.825,25.427,21.438,25.04,20.964,25.04z"/>
	<path d="M24.746,25.191c-0.475,0-0.861,0.387-0.861,0.861v4.27c0,0.475,0.387,0.861,0.861,0.861c0.476,0,0.862-0.387,0.862-0.861
		v-4.27C25.608,25.578,25.222,25.191,24.746,25.191z"/>
	<path d="M28.52,22.987c-0.475,0-0.861,0.387-0.861,0.861v6.474c0,0.475,0.387,0.861,0.861,0.861s0.861-0.387,0.861-0.861v-6.474
		C29.382,23.374,28.995,22.987,28.52,22.987z"/>
	<path d="M32.304,25.47c-0.476,0-0.862,0.387-0.862,0.861v3.991c0,0.475,0.387,0.861,0.862,0.861c0.475,0,0.861-0.387,0.861-0.861
		v-3.991C33.165,25.856,32.778,25.47,32.304,25.47z"/>
	<path d="M36.086,23.065c-0.475,0-0.861,0.387-0.861,0.862v6.395c0,0.475,0.387,0.861,0.861,0.861c0.476,0,0.862-0.387,0.862-0.861
		v-6.395C36.948,23.452,36.561,23.065,36.086,23.065z"/>
	<path d="M39.86,21.776c-0.475,0-0.861,0.387-0.861,0.861v7.685c0,0.475,0.387,0.861,0.861,0.861s0.861-0.387,0.861-0.861v-7.685
		C40.722,22.163,40.335,21.776,39.86,21.776z"/>
	<path d="M43.643,23.672c-0.476,0-0.862,0.387-0.862,0.861v5.789c0,0.475,0.387,0.861,0.862,0.861c0.475,0,0.861-0.387,0.861-0.861
		v-5.789C44.505,24.058,44.118,23.672,43.643,23.672z"/>
	<path d="M21.017,21.965c-0.229-0.015-0.451,0.061-0.624,0.213s-0.275,0.364-0.29,0.595c-0.014,0.229,0.062,0.451,0.215,0.624
		c0.152,0.172,0.363,0.275,0.593,0.289l3.783,0.232c0.229,0.018,0.442-0.061,0.614-0.208l3.178-2.734l3.218,3.11
		c0.161,0.157,0.374,0.243,0.6,0.243c0.218,0,0.427-0.082,0.589-0.232l3.692-3.458l3.189-1.606l3.357,2.479
		c0.185,0.136,0.413,0.195,0.64,0.159c0.228-0.034,0.429-0.155,0.564-0.341c0.137-0.185,0.193-0.412,0.159-0.64
		s-0.155-0.429-0.341-0.565l-3.782-2.792c-0.262-0.194-0.608-0.224-0.899-0.076l-3.775,1.9c-0.076,0.039-0.144,0.087-0.2,0.141
		l-3.185,2.981l-3.193-3.089c-0.323-0.312-0.822-0.325-1.16-0.033l-3.51,3.02L21.017,21.965z"/>
</g>















</svg>
