<?xml version="1.0" encoding="utf-8"?>
<svg version="1.1" xmlns="http://www.w3.org/2000/svg" xmlns:xlink="http://www.w3.org/1999/xlink" viewBox="0 0 39.784 39.902">
<g>
	<path d="M19.892,29.086c-5.045,0-9.15-4.104-9.15-9.15s4.105-9.15,9.15-9.15c5.045,0,9.15,4.104,9.15,9.15
		S24.937,29.086,19.892,29.086z M19.892,11.877c-4.444,0-8.059,3.615-8.059,8.059s3.615,8.059,8.059,8.059s8.059-3.615,8.059-8.059
		S24.335,11.877,19.892,11.877z"/>
	<path d="M33.606,15.739c-0.226,0-0.437-0.142-0.515-0.367c-1.375-3.974-4.426-7.088-8.374-8.542
		c-0.283-0.104-0.428-0.417-0.323-0.7c0.104-0.282,0.417-0.428,0.7-0.323c4.256,1.568,7.546,4.924,9.028,9.209
		c0.098,0.285-0.053,0.595-0.337,0.694C33.726,15.729,33.665,15.739,33.606,15.739z"/>
	<path d="M6.178,15.739c-0.06,0-0.12-0.01-0.179-0.03C5.715,15.61,5.564,15.3,5.662,15.015c1.481-4.283,4.77-7.639,9.025-9.207
		c0.282-0.105,0.596,0.041,0.7,0.323c0.104,0.282-0.041,0.596-0.323,0.7c-3.946,1.454-6.997,4.567-8.371,8.54
		C6.615,15.597,6.404,15.739,6.178,15.739z"/>
	<path d="M19.892,29.086c-0.693,0-1.391-0.08-2.073-0.239c-0.117-0.027-0.22-0.091-0.297-0.182c-1.45-1.743-2.351-5.088-2.351-8.729
		s0.901-6.985,2.351-8.729c0.076-0.091,0.18-0.155,0.297-0.183c1.365-0.317,2.782-0.317,4.148,0c0.116,0.027,0.22,0.091,0.296,0.183
		c1.45,1.743,2.351,5.088,2.351,8.729c0,3.64-0.901,6.985-2.351,8.729c-0.076,0.091-0.18,0.155-0.296,0.182
		C21.284,29.006,20.585,29.086,19.892,29.086z M18.246,27.825c1.088,0.227,2.204,0.227,3.292,0c1.228-1.597,1.985-4.592,1.985-7.888
		c0-3.297-0.757-6.292-1.985-7.888c-1.088-0.227-2.204-0.227-3.292,0c-1.228,1.596-1.985,4.591-1.985,7.888
		S17.018,26.229,18.246,27.825z"/>
	<path d="M19.892,24.658c-3.64,0-6.985-0.901-8.728-2.351c-0.092-0.076-0.156-0.18-0.183-0.295
		c-0.159-0.683-0.239-1.382-0.239-2.075c0-0.694,0.08-1.391,0.239-2.075c0.027-0.116,0.091-0.22,0.183-0.296
		c1.742-1.45,5.088-2.351,8.728-2.351c3.641,0,6.985,0.901,8.729,2.351c0.091,0.076,0.155,0.18,0.183,0.296
		c0.159,0.683,0.239,1.381,0.239,2.075c0,0.693-0.08,1.391-0.239,2.075c-0.027,0.115-0.091,0.22-0.183,0.295
		C26.878,23.757,23.533,24.658,19.892,24.658z M12.003,21.582c1.597,1.228,4.592,1.985,7.888,1.985c3.297,0,6.292-0.757,7.889-1.985
		c0.113-0.544,0.17-1.097,0.17-1.646c0-0.549-0.058-1.102-0.17-1.646c-1.597-1.228-4.592-1.985-7.889-1.985
		c-3.296,0-6.292,0.757-7.888,1.985c-0.113,0.544-0.17,1.097-0.17,1.646C11.833,20.485,11.89,21.038,12.003,21.582z"/>
	<path d="M9.42,20.482H8.174c-0.301,0-0.545-0.244-0.545-0.545c0-0.301,0.244-0.545,0.545-0.545H9.42
		c0.302,0,0.545,0.244,0.545,0.545C9.966,20.237,9.722,20.482,9.42,20.482z"/>
	<path d="M28.496,20.482H11.287c-0.301,0-0.545-0.244-0.545-0.545c0-0.301,0.244-0.545,0.545-0.545h17.209
		c0.301,0,0.545,0.244,0.545,0.545C29.042,20.237,28.798,20.482,28.496,20.482z"/>
	<path d="M31.61,20.482h-1.408c-0.301,0-0.545-0.244-0.545-0.545c0-0.301,0.244-0.545,0.545-0.545h1.408
		c0.301,0,0.545,0.244,0.545,0.545C32.155,20.237,31.911,20.482,31.61,20.482z"/>
	<path d="M19.892,8.72c-1.814,0-3.291-1.476-3.291-3.291s1.476-3.291,3.291-3.291c1.815,0,3.291,1.476,3.291,3.291
		S21.707,8.72,19.892,8.72z M19.892,3.228c-1.213,0-2.2,0.987-2.2,2.2s0.987,2.2,2.2,2.2c1.213,0,2.2-0.987,2.2-2.2
		S21.105,3.228,19.892,3.228z"/>
	<path d="M5.428,23.228c-1.814,0-3.291-1.477-3.291-3.291c0-1.815,1.476-3.291,3.291-3.291c1.815,0,3.291,1.476,3.291,3.291
		C8.72,21.751,7.243,23.228,5.428,23.228z M5.428,17.736c-1.213,0-2.2,0.987-2.2,2.2c0,1.213,0.987,2.2,2.2,2.2s2.2-0.987,2.2-2.2
		C7.629,18.723,6.642,17.736,5.428,17.736z"/>
	<path d="M34.356,23.228c-1.815,0-3.291-1.477-3.291-3.291c0-1.815,1.476-3.291,3.291-3.291c1.814,0,3.291,1.476,3.291,3.291
		C37.646,21.751,36.17,23.228,34.356,23.228z M34.356,17.736c-1.214,0-2.2,0.987-2.2,2.2c0,1.213,0.987,2.2,2.2,2.2
		c1.213,0,2.2-0.987,2.2-2.2C36.555,18.723,35.568,17.736,34.356,17.736z"/>
	<path d="M14.878,34.099c-0.063,0-0.126-0.011-0.188-0.034c-4.256-1.568-7.546-4.924-9.027-9.209
		C5.564,24.572,5.715,24.261,6,24.164c0.283-0.098,0.595,0.052,0.694,0.337c1.373,3.974,4.426,7.087,8.373,8.541
		c0.282,0.104,0.428,0.418,0.323,0.7C15.308,33.962,15.099,34.099,14.878,34.099z"/>
	<path d="M24.909,34.098c-0.222,0-0.431-0.137-0.512-0.357c-0.104-0.282,0.04-0.597,0.323-0.7c3.946-1.454,6.997-4.567,8.37-8.541
		c0.099-0.284,0.408-0.436,0.694-0.337c0.285,0.098,0.436,0.409,0.338,0.694c-1.482,4.284-4.771,7.639-9.025,9.207
		C25.035,34.087,24.971,34.098,24.909,34.098z"/>
	<path d="M19.892,29.086c-0.301,0-0.545-0.244-0.545-0.545V11.332c0-0.302,0.244-0.545,0.545-0.545c0.302,0,0.545,0.244,0.545,0.545
		v17.209C20.437,28.842,20.193,29.086,19.892,29.086z"/>
	<path d="M19.892,10.147c-0.301,0-0.545-0.244-0.545-0.545V8.175c0-0.302,0.244-0.545,0.545-0.545c0.302,0,0.545,0.244,0.545,0.545
		v1.426C20.437,9.902,20.193,10.147,19.892,10.147z"/>
	<path d="M19.892,37.765c-1.814,0-3.291-1.476-3.291-3.291c0-1.814,1.476-3.291,3.291-3.291c1.815,0,3.291,1.476,3.291,3.291
		C23.183,36.288,21.707,37.765,19.892,37.765z M19.892,32.274c-1.213,0-2.2,0.987-2.2,2.2c0,1.213,0.987,2.2,2.2,2.2
		c1.213,0,2.2-0.987,2.2-2.2C22.092,33.26,21.105,32.274,19.892,32.274z"/>
	<path d="M19.892,32.274c-0.301,0-0.545-0.244-0.545-0.546v-1.426c0-0.301,0.244-0.545,0.545-0.545c0.302,0,0.545,0.244,0.545,0.545
		v1.426C20.437,32.029,20.193,32.274,19.892,32.274z"/>
</g>















</svg>
