<?xml version="1.0" encoding="utf-8"?>
<svg version="1.1" xmlns="http://www.w3.org/2000/svg" xmlns:xlink="http://www.w3.org/1999/xlink" viewBox="0 0 39.467 30.19">
<g>
	<path d="M32.399,22.411H7.069c-1.199,0-2.174-0.944-2.174-2.105v-9.834c0-0.316,0.256-0.572,0.573-0.572
		c0.316,0,0.572,0.256,0.572,0.572v9.834c0,0.529,0.462,0.96,1.029,0.96h25.33c0.567,0,1.029-0.431,1.029-0.96V6.05
		c0-0.529-0.462-0.96-1.029-0.96h-1.98c-0.317,0-0.572-0.256-0.572-0.572c0-0.317,0.256-0.573,0.572-0.573h1.98
		c1.199,0,2.175,0.944,2.175,2.105v14.256C34.574,21.467,33.598,22.411,32.399,22.411z"/>
	<path d="M5.468,8.13c-0.317,0-0.573-0.256-0.573-0.572V6.05c0-1.161,0.975-2.105,2.174-2.105h7.116
		c0.316,0,0.572,0.256,0.572,0.573c0,0.316-0.256,0.572-0.572,0.572H7.069c-0.567,0-1.029,0.431-1.029,0.96v1.507
		C6.039,7.873,5.784,8.13,5.468,8.13z"/>
	<path d="M31.112,25.289H8.355c-0.316,0-0.572-0.256-0.572-0.573v-2.877c0-0.317,0.256-0.573,0.572-0.573h22.757
		c0.317,0,0.573,0.256,0.573,0.573v2.877C31.685,25.033,31.429,25.289,31.112,25.289z M8.928,24.144h21.611v-1.732H8.928V24.144z"/>
	<path d="M32.85,28.075H6.617c-1.401,0-2.644-0.841-3.166-2.142L3.048,24.93c-0.071-0.177-0.05-0.377,0.056-0.534
		c0.108-0.157,0.285-0.252,0.475-0.252h32.309c0.19,0,0.368,0.094,0.474,0.252c0.107,0.157,0.128,0.358,0.057,0.534l-0.403,1.004
		C35.495,27.235,34.253,28.075,32.85,28.075z M4.426,25.289l0.088,0.218c0.347,0.864,1.172,1.422,2.103,1.422H32.85
		c0.931,0,1.757-0.558,2.104-1.422l0.087-0.218H4.426z"/>
	<path d="M36.78,28.075H2.687c-0.317,0-0.573-0.256-0.573-0.572c0-0.317,0.256-0.573,0.573-0.573H36.78
		c0.316,0,0.572,0.256,0.572,0.573C37.353,27.819,37.096,28.075,36.78,28.075z"/>
	<path d="M19.429,20.629c-0.541,0-1.087-0.161-1.561-0.496l-5.348-3.785c-1.219-0.864-1.509-2.557-0.645-3.776l5.879-8.308
		c0.471-0.666,1.173-1.113,1.976-1.258l4.69-0.85c0.658-0.12,1.32,0.028,1.865,0.414c0.546,0.386,0.904,0.962,1.01,1.622
		l0.759,4.705c0.13,0.806-0.058,1.617-0.53,2.283l-5.88,8.307C21.116,20.231,20.278,20.629,19.429,20.629z M24.622,3.282l-4.69,0.85
		c-0.506,0.091-0.948,0.373-1.245,0.793l-5.88,8.308c-0.498,0.704-0.331,1.681,0.372,2.18l5.349,3.785
		c0.704,0.498,1.681,0.33,2.18-0.373l5.88-8.307c0.297-0.42,0.416-0.931,0.334-1.439l-0.759-4.705
		c-0.057-0.353-0.249-0.662-0.542-0.869C25.33,3.296,24.975,3.217,24.622,3.282L24.622,3.282z"/>
	<path d="M23.925,7.823c-0.386,0-0.774-0.115-1.111-0.353c-0.866-0.614-1.073-1.818-0.459-2.684c0.614-0.867,1.819-1.072,2.684-0.46
		c0.866,0.614,1.072,1.818,0.459,2.684C25.125,7.541,24.529,7.823,23.925,7.823z M23.929,5.119c-0.245,0-0.487,0.114-0.639,0.329
		c-0.248,0.351-0.165,0.839,0.186,1.088c0.351,0.248,0.84,0.165,1.088-0.186c0.248-0.352,0.165-0.84-0.186-1.088
		C24.241,5.165,24.084,5.119,23.929,5.119z"/>
	<path d="M21.628,19.088c-0.115,0-0.23-0.033-0.33-0.105l-8.836-6.253c-0.258-0.183-0.319-0.54-0.136-0.798
		c0.182-0.259,0.54-0.319,0.797-0.137l8.836,6.253c0.258,0.183,0.319,0.54,0.137,0.798C21.985,19.004,21.808,19.088,21.628,19.088z"
		/>
	<path d="M18.191,13.613c-0.209,0-0.41-0.114-0.511-0.313c-0.144-0.281-0.031-0.626,0.25-0.77l2.36-1.203l-1.046-0.74
		c-0.16-0.114-0.251-0.302-0.241-0.498c0.011-0.196,0.121-0.373,0.292-0.469l2.049-1.15c0.275-0.154,0.625-0.057,0.78,0.219
		c0.155,0.276,0.056,0.625-0.219,0.78l-1.259,0.707l1.079,0.764c0.164,0.115,0.255,0.308,0.241,0.508
		c-0.014,0.2-0.132,0.378-0.311,0.469l-3.203,1.634C18.367,13.592,18.279,13.613,18.191,13.613z"/>
	<path d="M34,19.914H23.927c-0.316,0-0.572-0.256-0.572-0.572s0.256-0.572,0.572-0.572H34c0.317,0,0.574,0.256,0.574,0.572
		S34.317,19.914,34,19.914z"/>
	<path d="M13.859,19.914H5.468c-0.317,0-0.573-0.256-0.573-0.572s0.256-0.572,0.573-0.572h8.392c0.316,0,0.572,0.256,0.572,0.572
		S14.175,19.914,13.859,19.914z"/>
</g>















</svg>
