<?xml version="1.0" encoding="utf-8"?>
<svg version="1.1" xmlns="http://www.w3.org/2000/svg" xmlns:xlink="http://www.w3.org/1999/xlink" viewBox="0 0 43.158 57.3">
<g>
	<path d="M9.434,20.404h24.619c0.475,0,0.862-0.387,0.862-0.861c0-0.476-0.387-0.862-0.862-0.862H9.434
		c-0.475,0-0.861,0.387-0.861,0.862C8.573,20.017,8.959,20.404,9.434,20.404z"/>
	<path d="M34.053,23.734H17.554c-0.475,0-0.861,0.387-0.861,0.861c0,0.476,0.386,0.862,0.861,0.862h16.499
		c0.475,0,0.862-0.387,0.862-0.862C34.915,24.12,34.528,23.734,34.053,23.734z"/>
	<path d="M9.434,25.457h5.124c0.475,0,0.861-0.387,0.861-0.862c0-0.475-0.386-0.861-0.861-0.861H9.434
		c-0.475,0-0.861,0.387-0.861,0.861C8.573,25.071,8.959,25.457,9.434,25.457z"/>
	<path d="M9.434,40.618h24.619c0.475,0,0.862-0.387,0.862-0.861s-0.387-0.861-0.862-0.861H9.434c-0.475,0-0.861,0.387-0.861,0.861
		S8.959,40.618,9.434,40.618z"/>
	<path d="M34.053,28.787H28.66c-0.475,0-0.861,0.387-0.861,0.861c0,0.476,0.386,0.862,0.861,0.862h5.393
		c0.475,0,0.862-0.387,0.862-0.862C34.915,29.174,34.528,28.787,34.053,28.787z"/>
	<path d="M9.434,30.511h16.229c0.475,0,0.862-0.387,0.862-0.862c0-0.475-0.387-0.861-0.862-0.861H9.434
		c-0.475,0-0.861,0.387-0.861,0.861C8.573,30.124,8.959,30.511,9.434,30.511z"/>
	<path d="M34.053,33.841H22.668c-0.475,0-0.862,0.387-0.862,0.861s0.387,0.861,0.862,0.861h11.385c0.475,0,0.862-0.387,0.862-0.861
		S34.528,33.841,34.053,33.841z"/>
	<path d="M9.434,35.564h10.237c0.475,0,0.861-0.387,0.861-0.861s-0.386-0.861-0.861-0.861H9.434c-0.475,0-0.861,0.387-0.861,0.861
		S8.959,35.564,9.434,35.564z"/>
	<path d="M5.929,49.237h31.3c0.766,0,1.485-0.3,2.025-0.846c0.539-0.543,0.831-1.259,0.824-2.013V9.624
		c0-1.577-1.283-2.859-2.859-2.859h-1.515V3.932c0-0.476-0.387-0.862-0.862-0.862s-0.861,0.387-0.861,0.862v2.833h-4.799V3.932
		c0-0.476-0.386-0.862-0.861-0.862s-0.862,0.387-0.862,0.862v2.833H22.67V3.932c0-0.476-0.386-0.862-0.861-0.862
		s-0.862,0.387-0.862,0.862v2.833h-4.809V3.932c0-0.476-0.386-0.862-0.861-0.862s-0.862,0.387-0.862,0.862v2.833H9.627V3.932
		c0-0.476-0.386-0.862-0.861-0.862S7.904,3.456,7.904,3.932v2.833H5.929c-1.577,0-2.859,1.282-2.859,2.859v36.754
		C3.07,47.954,4.352,49.237,5.929,49.237z M7.904,8.827c-0.931,0.35-1.598,1.243-1.598,2.295c0,1.356,1.104,2.46,2.46,2.46
		s2.459-1.104,2.459-2.46c0-1.052-0.667-1.945-1.598-2.295V8.489h4.789v0.339c-0.931,0.351-1.598,1.243-1.598,2.295
		c0,1.356,1.103,2.46,2.459,2.46s2.459-1.104,2.459-2.46c0-1.052-0.667-1.945-1.598-2.295V8.489h4.809v0.339
		c-0.931,0.35-1.598,1.243-1.598,2.295c0,1.356,1.104,2.46,2.46,2.46s2.459-1.104,2.459-2.46c0-1.052-0.667-1.945-1.598-2.295V8.489
		h4.789v0.339c-0.931,0.351-1.598,1.243-1.598,2.295c0,1.356,1.103,2.46,2.459,2.46s2.459-1.104,2.459-2.46
		c0-1.052-0.667-1.945-1.598-2.295V8.489h4.799v0.339c-0.931,0.351-1.598,1.243-1.598,2.295c0,1.356,1.103,2.46,2.459,2.46
		s2.459-1.104,2.459-2.46c0-1.052-0.667-1.944-1.598-2.295V8.489h1.515c0.626,0,1.136,0.51,1.136,1.136v36.762
		c0.002,0.297-0.113,0.578-0.324,0.792c-0.215,0.217-0.5,0.336-0.802,0.336h-31.3c-0.626,0-1.136-0.51-1.136-1.136V9.624
		c0-0.626,0.51-1.136,1.136-1.136h1.975V8.827z"/>
	<path d="M39.227,52.507H3.931c-0.475,0-0.862,0.387-0.862,0.862c0,0.475,0.387,0.861,0.862,0.861h35.295
		c0.475,0,0.861-0.387,0.861-0.861C40.088,52.894,39.702,52.507,39.227,52.507z"/>
	<path d="M3.931,51.734h35.295c0.475,0,0.861-0.387,0.861-0.861s-0.386-0.861-0.861-0.861H3.931c-0.475,0-0.862,0.387-0.862,0.861
		S3.456,51.734,3.931,51.734z"/>
</g>















</svg>
