<?xml version="1.0" encoding="utf-8"?>
<svg version="1.1" xmlns="http://www.w3.org/2000/svg" xmlns:xlink="http://www.w3.org/1999/xlink" viewBox="0 0 24.36 24.792">
<path d="M1.748,23.464h13.275c0.232,0,0.42-0.188,0.42-0.42V1.748c0-0.232-0.188-0.42-0.42-0.42H1.748
	c-0.232,0-0.42,0.188-0.42,0.42v21.296C1.328,23.276,1.516,23.464,1.748,23.464z M2.168,2.168h12.436v20.456H2.168V2.168z"/>
<path d="M12.79,4.499H3.858c-0.232,0-0.42,0.188-0.42,0.42s0.188,0.42,0.42,0.42h8.932c0.232,0,0.42-0.188,0.42-0.42
	S13.022,4.499,12.79,4.499z"/>
<path d="M12.79,7.219H3.858c-0.232,0-0.42,0.188-0.42,0.42s0.188,0.42,0.42,0.42h8.932c0.232,0,0.42-0.187,0.42-0.42
	S13.022,7.219,12.79,7.219z"/>
<path d="M12.79,9.937H3.858c-0.232,0-0.42,0.188-0.42,0.42s0.188,0.42,0.42,0.42h8.932c0.232,0,0.42-0.188,0.42-0.42
	S13.022,9.937,12.79,9.937z"/>
<path d="M12.79,12.656H3.858c-0.232,0-0.42,0.188-0.42,0.42s0.188,0.42,0.42,0.42h8.932c0.232,0,0.42-0.188,0.42-0.42
	S13.022,12.656,12.79,12.656z"/>
<path d="M18.014,19.196c0,0.111,0.044,0.219,0.123,0.297c0.027,0.028,0.061,0.045,0.095,0.064l1.912,3.588
	c0.073,0.138,0.216,0.223,0.371,0.223s0.298-0.085,0.371-0.222l1.915-3.59c0.032-0.018,0.066-0.035,0.093-0.062
	c0.079-0.078,0.123-0.186,0.123-0.297L23.016,4.587c0.005-0.026,0.016-0.05,0.016-0.077l0.001-0.373
	c0-1.482-1.129-2.688-2.518-2.689c-1.388,0.001-2.516,1.207-2.516,2.689v0.372c0,0.028,0.011,0.052,0.016,0.078L18.014,19.196z
	 M22.177,18.733l-1.385,0.001L20.791,4.929h1.385L22.177,18.733z M20.239,18.733l-1.385-0.001V4.929h1.384L20.239,18.733z
	 M20.515,22.054l-1.299-2.438h2.6L20.515,22.054z M20.515,2.287c0.91,0.001,1.654,0.806,1.677,1.802H18.84
	C18.863,3.092,19.605,2.288,20.515,2.287z"/>
<path d="M8.833,14.773c-0.164-0.164-0.43-0.164-0.594,0l-2.601,2.6l-1.381-1.379c-0.164-0.164-0.43-0.164-0.594,0
	c-0.165,0.164-0.164,0.43,0,0.594l1.678,1.677c0.082,0.082,0.189,0.123,0.297,0.123s0.215-0.041,0.297-0.123l2.897-2.897
	C8.998,15.203,8.998,14.938,8.833,14.773z"/>
<path d="M12.79,17.341H8.536c-0.232,0-0.42,0.188-0.42,0.42s0.188,0.42,0.42,0.42h4.254c0.232,0,0.42-0.188,0.42-0.42
	S13.022,17.341,12.79,17.341z"/>















</svg>
