<?xml version="1.0" encoding="utf-8"?>
<svg version="1.1" xmlns="http://www.w3.org/2000/svg" xmlns:xlink="http://www.w3.org/1999/xlink" viewBox="0 0 39.44 40.391">
<g>
	<path d="M22.894,10.871H2.736c-0.316,0-0.572-0.256-0.572-0.572V7.091c0-0.316,0.256-0.572,0.572-0.572h20.157
		c0.317,0,0.573,0.256,0.573,0.572v3.207C23.467,10.614,23.21,10.871,22.894,10.871z M3.309,9.725h19.012V7.664H3.309V9.725z"/>
	<path d="M21.062,38.227H4.569c-0.316,0-0.572-0.256-0.572-0.572V10.298c0-0.317,0.256-0.573,0.572-0.573h16.493
		c0.316,0,0.572,0.256,0.572,0.573v27.356C21.634,37.971,21.378,38.227,21.062,38.227z M5.141,37.082h15.347V10.871H5.141V37.082z"
		/>
	<path d="M16.676,38.227H8.954c-0.316,0-0.572-0.256-0.572-0.572v-5.662c0-0.316,0.256-0.572,0.572-0.572h7.723
		c0.317,0,0.573,0.256,0.573,0.572v5.662C17.249,37.971,16.993,38.227,16.676,38.227z M9.527,37.082h6.577v-4.516H9.527V37.082z"/>
	<path d="M36.703,18.832H21.062c-0.317,0-0.573-0.256-0.573-0.573v-2.488c0-0.317,0.256-0.573,0.573-0.573h15.641
		c0.317,0,0.573,0.256,0.573,0.573v2.488C37.276,18.576,37.019,18.832,36.703,18.832z M21.634,17.687H36.13v-1.344H21.634V17.687z"
		/>
	<path d="M35.281,38.227H21.062c-0.317,0-0.573-0.256-0.573-0.572V18.259c0-0.316,0.256-0.572,0.573-0.572h14.219
		c0.316,0,0.572,0.256,0.572,0.572v3.198c0,0.316-0.256,0.572-0.572,0.572c-0.316,0-0.572-0.256-0.572-0.572v-2.625H21.634v18.249
		h13.075V25.155c0-0.316,0.256-0.572,0.572-0.572c0.316,0,0.572,0.256,0.572,0.572v12.5C35.854,37.971,35.597,38.227,35.281,38.227z
		"/>
	<path d="M36.703,38.227H2.736c-0.316,0-0.572-0.256-0.572-0.572c0-0.317,0.256-0.573,0.572-0.573h33.966
		c0.317,0,0.573,0.256,0.573,0.573C37.276,37.971,37.019,38.227,36.703,38.227z"/>
	<path d="M12.815,38.227c-0.316,0-0.572-0.256-0.572-0.572v-5.662c0-0.316,0.256-0.572,0.572-0.572c0.317,0,0.573,0.256,0.573,0.572
		v5.662C13.388,37.971,13.132,38.227,12.815,38.227z"/>
	<path d="M9.494,16.194H6.876c-0.316,0-0.572-0.256-0.572-0.572v-2.787c0-0.317,0.256-0.573,0.572-0.573h2.619
		c0.316,0,0.572,0.256,0.572,0.573v2.787C10.067,15.938,9.811,16.194,9.494,16.194z M7.448,15.049h1.473v-1.642H7.448V15.049z"/>
	<path d="M14.124,16.194h-2.619c-0.316,0-0.572-0.256-0.572-0.572v-2.787c0-0.317,0.256-0.573,0.572-0.573h2.619
		c0.316,0,0.572,0.256,0.572,0.573v2.787C14.697,15.938,14.44,16.194,14.124,16.194z M12.079,15.049h1.473v-1.642h-1.473V15.049z"/>
	<path d="M18.754,16.194h-2.619c-0.316,0-0.572-0.256-0.572-0.572v-2.787c0-0.317,0.256-0.573,0.572-0.573h2.619
		c0.316,0,0.572,0.256,0.572,0.573v2.787C19.327,15.938,19.07,16.194,18.754,16.194z M16.709,15.049h1.473v-1.642h-1.473V15.049z"/>
	<path d="M9.494,20.787H6.876c-0.316,0-0.572-0.256-0.572-0.572v-2.787c0-0.316,0.256-0.572,0.572-0.572h2.619
		c0.316,0,0.572,0.256,0.572,0.572v2.787C10.067,20.531,9.811,20.787,9.494,20.787z M7.448,19.642h1.473V18H7.448V19.642z"/>
	<path d="M14.124,20.787h-2.619c-0.316,0-0.572-0.256-0.572-0.572v-2.787c0-0.316,0.256-0.572,0.572-0.572h2.619
		c0.316,0,0.572,0.256,0.572,0.572v2.787C14.697,20.531,14.44,20.787,14.124,20.787z M12.079,19.642h1.473V18h-1.473V19.642z"/>
	<path d="M18.754,20.787h-2.619c-0.316,0-0.572-0.256-0.572-0.572v-2.787c0-0.316,0.256-0.572,0.572-0.572h2.619
		c0.316,0,0.572,0.256,0.572,0.572v2.787C19.327,20.531,19.07,20.787,18.754,20.787z M16.709,19.642h1.473V18h-1.473V19.642z"/>
	<path d="M9.494,25.379H6.876c-0.316,0-0.572-0.256-0.572-0.572V22.02c0-0.316,0.256-0.572,0.572-0.572h2.619
		c0.316,0,0.572,0.256,0.572,0.572v2.787C10.067,25.123,9.811,25.379,9.494,25.379z M7.448,24.235h1.473v-1.642H7.448V24.235z"/>
	<path d="M14.124,25.379h-2.619c-0.316,0-0.572-0.256-0.572-0.572V22.02c0-0.316,0.256-0.572,0.572-0.572h2.619
		c0.316,0,0.572,0.256,0.572,0.572v2.787C14.697,25.123,14.44,25.379,14.124,25.379z M12.079,24.235h1.473v-1.642h-1.473V24.235z"/>
	<path d="M18.754,25.379h-2.619c-0.316,0-0.572-0.256-0.572-0.572V22.02c0-0.316,0.256-0.572,0.572-0.572h2.619
		c0.316,0,0.572,0.256,0.572,0.572v2.787C19.327,25.123,19.07,25.379,18.754,25.379z M16.709,24.235h1.473v-1.642h-1.473V24.235z"/>
	<path d="M9.494,29.973H6.876c-0.316,0-0.572-0.256-0.572-0.573v-2.787c0-0.317,0.256-0.573,0.572-0.573h2.619
		c0.316,0,0.572,0.256,0.572,0.573V29.4C10.067,29.716,9.811,29.973,9.494,29.973z M7.448,28.827h1.473v-1.642H7.448V28.827z"/>
	<path d="M14.124,29.973h-2.619c-0.316,0-0.572-0.256-0.572-0.573v-2.787c0-0.317,0.256-0.573,0.572-0.573h2.619
		c0.316,0,0.572,0.256,0.572,0.573V29.4C14.697,29.716,14.44,29.973,14.124,29.973z M12.079,28.827h1.473v-1.642h-1.473V28.827z"/>
	<path d="M18.754,29.973h-2.619c-0.316,0-0.572-0.256-0.572-0.573v-2.787c0-0.317,0.256-0.573,0.572-0.573h2.619
		c0.316,0,0.572,0.256,0.572,0.573V29.4C19.327,29.716,19.07,29.973,18.754,29.973z M16.709,28.827h1.473v-1.642h-1.473V28.827z"/>
	<path d="M25.34,24.554h-2.232c-0.317,0-0.573-0.256-0.573-0.573v-3.464c0-0.316,0.256-0.572,0.573-0.572h2.232
		c0.317,0,0.573,0.256,0.573,0.572v3.464C25.913,24.298,25.657,24.554,25.34,24.554z M23.681,23.408h1.087V21.09h-1.087V23.408z"/>
	<path d="M29.287,24.554h-2.232c-0.317,0-0.573-0.256-0.573-0.573v-3.464c0-0.316,0.256-0.572,0.573-0.572h2.232
		c0.316,0,0.572,0.256,0.572,0.572v3.464C29.86,24.298,29.603,24.554,29.287,24.554z M27.628,23.408h1.087V21.09h-1.087V23.408z"/>
	<path d="M33.235,24.554h-2.233c-0.317,0-0.573-0.256-0.573-0.573v-3.464c0-0.316,0.256-0.572,0.573-0.572h2.233
		c0.316,0,0.572,0.256,0.572,0.572v3.464C33.807,24.298,33.551,24.554,33.235,24.554z M31.574,23.408h1.087V21.09h-1.087V23.408z"/>
	<path d="M25.34,30.262h-2.232c-0.317,0-0.573-0.256-0.573-0.572v-3.464c0-0.317,0.256-0.573,0.573-0.573h2.232
		c0.317,0,0.573,0.256,0.573,0.573v3.464C25.913,30.005,25.657,30.262,25.34,30.262z M23.681,29.117h1.087v-2.319h-1.087V29.117z"/>
	<path d="M29.287,30.262h-2.232c-0.317,0-0.573-0.256-0.573-0.572v-3.464c0-0.317,0.256-0.573,0.573-0.573h2.232
		c0.316,0,0.572,0.256,0.572,0.573v3.464C29.86,30.005,29.603,30.262,29.287,30.262z M27.628,29.117h1.087v-2.319h-1.087V29.117z"/>
	<path d="M33.235,30.262h-2.233c-0.317,0-0.573-0.256-0.573-0.572v-3.464c0-0.317,0.256-0.573,0.573-0.573h2.233
		c0.316,0,0.572,0.256,0.572,0.573v3.464C33.807,30.005,33.551,30.262,33.235,30.262z M31.574,29.117h1.087v-2.319h-1.087V29.117z"
		/>
	<path d="M25.34,35.97h-2.232c-0.317,0-0.573-0.256-0.573-0.572v-3.464c0-0.317,0.256-0.573,0.573-0.573h2.232
		c0.317,0,0.573,0.256,0.573,0.573v3.464C25.913,35.713,25.657,35.97,25.34,35.97z M23.681,34.824h1.087v-2.319h-1.087V34.824z"/>
	<path d="M29.287,35.97h-2.232c-0.317,0-0.573-0.256-0.573-0.572v-3.464c0-0.317,0.256-0.573,0.573-0.573h2.232
		c0.316,0,0.572,0.256,0.572,0.573v3.464C29.86,35.713,29.603,35.97,29.287,35.97z M27.628,34.824h1.087v-2.319h-1.087V34.824z"/>
	<path d="M33.235,35.97h-2.233c-0.317,0-0.573-0.256-0.573-0.572v-3.464c0-0.317,0.256-0.573,0.573-0.573h2.233
		c0.316,0,0.572,0.256,0.572,0.573v3.464C33.807,35.713,33.551,35.97,33.235,35.97z M31.574,34.824h1.087v-2.319h-1.087V34.824z"/>
	<path d="M25.312,13.413c-0.25,0-0.5-0.079-0.719-0.237c-0.436-0.317-0.61-0.854-0.443-1.366l0.801-2.465
		c0.01-0.031-0.001-0.066-0.028-0.085l-2.097-1.523c-0.437-0.317-0.61-0.854-0.444-1.367c0.167-0.512,0.623-0.844,1.162-0.844h2.591
		c0.033,0,0.063-0.022,0.073-0.053l0.801-2.464c0.167-0.513,0.622-0.844,1.161-0.845c0.54,0,0.995,0.332,1.163,0.845l0.62,1.908
		c0.098,0.3-0.067,0.624-0.368,0.721c-0.3,0.098-0.624-0.068-0.721-0.368l-0.62-1.908c-0.007-0.019-0.018-0.052-0.073-0.052
		c-0.056,0-0.066,0.033-0.073,0.052l-0.801,2.465c-0.165,0.504-0.631,0.844-1.162,0.844h-2.591c-0.021,0-0.056,0-0.073,0.052
		C23.454,6.777,23.482,6.798,23.5,6.81l2.096,1.523c0.429,0.311,0.608,0.86,0.445,1.366l-0.801,2.465
		c-0.006,0.02-0.017,0.053,0.028,0.086c0.046,0.033,0.073,0.011,0.09,0l2.097-1.524c0.428-0.312,1.006-0.313,1.437,0.001
		l2.096,1.523c0.016,0.012,0.045,0.033,0.09,0.001c0.045-0.033,0.035-0.066,0.028-0.086L30.01,8.773
		c-0.097-0.301,0.068-0.624,0.369-0.721c0.302-0.097,0.624,0.068,0.721,0.369l1.094,3.389c0.167,0.511-0.009,1.048-0.445,1.365
		c-0.437,0.317-1.001,0.317-1.437-0.001l-2.096-1.523c-0.028-0.02-0.064-0.02-0.09-0.001l-2.097,1.524
		C25.812,13.334,25.562,13.413,25.312,13.413z"/>
	<path d="M28.171,16.343c-0.316,0-0.573-0.256-0.573-0.572v-4.589c0-0.316,0.257-0.572,0.573-0.572c0.316,0,0.572,0.256,0.572,0.572
		v4.589C28.744,16.087,28.487,16.343,28.171,16.343z"/>
	<path d="M30.123,9.266c-0.188,0-0.376-0.058-0.538-0.175c-0.321-0.233-0.455-0.645-0.332-1.023l0.37-1.14l-0.969-0.704
		c-0.322-0.234-0.456-0.645-0.332-1.024c0.123-0.378,0.473-0.631,0.87-0.631h1.198l0.37-1.14c0.123-0.378,0.473-0.632,0.869-0.632
		c0.398,0,0.747,0.254,0.871,0.631l0.371,1.14h1.198c0.398,0,0.747,0.254,0.87,0.632c0.123,0.378-0.01,0.789-0.332,1.023
		l-0.969,0.704l0.37,1.14c0.123,0.378-0.01,0.789-0.332,1.023c-0.322,0.233-0.754,0.234-1.075-0.001l-0.97-0.704l-0.969,0.704
		C30.501,9.208,30.312,9.266,30.123,9.266z M31.63,7.186c0.189,0,0.378,0.058,0.538,0.176L32.7,7.748l-0.203-0.625
		c-0.123-0.376,0.01-0.787,0.332-1.022l0.532-0.386h-0.657c-0.397,0-0.747-0.254-0.87-0.633l-0.203-0.624l-0.203,0.624
		c-0.122,0.378-0.471,0.633-0.869,0.633h-0.657l0.531,0.386c0.322,0.234,0.455,0.645,0.333,1.022l-0.203,0.625l0.531-0.386
		C31.254,7.245,31.442,7.186,31.63,7.186z"/>
</g>















</svg>
