<?xml version="1.0" encoding="utf-8"?>
<svg version="1.1" xmlns="http://www.w3.org/2000/svg" xmlns:xlink="http://www.w3.org/1999/xlink" viewBox="0 0 40.636 27.742">
<g>
	<path d="M23.123,6.686H2.768c-0.327,0-0.591-0.264-0.591-0.591c0-0.327,0.265-0.591,0.591-0.591h20.354
		c0.326,0,0.591,0.264,0.591,0.591C23.714,6.421,23.449,6.686,23.123,6.686z"/>
	<path d="M5.817,4.542c0-0.313-0.254-0.568-0.568-0.568c-0.313,0-0.568,0.254-0.568,0.568c0,0.314,0.254,0.568,0.568,0.568
		C5.563,5.111,5.817,4.856,5.817,4.542z"/>
	<path d="M7.986,4.542c0-0.313-0.254-0.568-0.568-0.568c-0.314,0-0.569,0.254-0.569,0.568c0,0.314,0.254,0.568,0.569,0.568
		C7.732,5.111,7.986,4.856,7.986,4.542z"/>
	<path d="M10.155,4.542c0-0.313-0.254-0.568-0.568-0.568c-0.314,0-0.568,0.254-0.568,0.568c0,0.314,0.254,0.568,0.568,0.568
		C9.901,5.111,10.155,4.856,10.155,4.542z"/>
	<path d="M15.242,5.133h-1.682c-0.327,0-0.591-0.265-0.591-0.591s0.265-0.591,0.591-0.591h1.682c0.327,0,0.591,0.265,0.591,0.591
		S15.569,5.133,15.242,5.133z"/>
	<path d="M14.498,23.947H4.318c-1.18,0-2.141-0.96-2.141-2.141V4.318c0-1.18,0.961-2.141,2.141-2.141h20.291
		c0.327,0,0.591,0.265,0.591,0.591S24.935,3.36,24.608,3.36H4.318c-0.528,0-0.958,0.429-0.958,0.958v17.488
		c0,0.528,0.429,0.959,0.958,0.959h10.18c0.327,0,0.591,0.264,0.591,0.591C15.09,23.683,14.825,23.947,14.498,23.947z"/>
	<path d="M21.007,5.133h-3.295c-0.326,0-0.591-0.265-0.591-0.591s0.265-0.591,0.591-0.591h3.295c0.327,0,0.591,0.265,0.591,0.591
		S21.333,5.133,21.007,5.133z"/>
	<path d="M14.998,17.434H5.453c-0.327,0-0.591-0.264-0.591-0.591V8.659c0-0.327,0.265-0.591,0.591-0.591h9.545
		c0.326,0,0.591,0.265,0.591,0.591v8.185C15.59,17.17,15.325,17.434,14.998,17.434z M6.045,16.252h8.362V9.25H6.045V16.252z"/>
	<path d="M12.915,19.78H7.537c-0.327,0-0.591-0.264-0.591-0.591c0-0.327,0.265-0.591,0.591-0.591h5.379
		c0.327,0,0.591,0.264,0.591,0.591C13.507,19.516,13.242,19.78,12.915,19.78z"/>
	<path d="M20.227,23.577c-0.19,0-0.372-0.092-0.485-0.253l-2.817-4.041c-0.145-0.208-0.142-0.486,0.01-0.69l1.628-2.202
		c0.193-0.262,0.564-0.318,0.827-0.123c0.262,0.194,0.318,0.564,0.124,0.827l-1.376,1.86l2.331,3.344l14.114-4.116L26.88,7.136
		l-5.67,7.666c-0.194,0.262-0.564,0.318-0.827,0.124c-0.263-0.195-0.318-0.565-0.124-0.827l6.16-8.327
		c0.113-0.153,0.304-0.226,0.484-0.24c0.19,0.003,0.368,0.097,0.477,0.253l8.645,12.398c0.109,0.156,0.136,0.355,0.072,0.535
		c-0.063,0.18-0.209,0.318-0.392,0.371l-15.312,4.465C20.338,23.569,20.282,23.577,20.227,23.577z"/>
	<path d="M36.722,19.946c-0.549,0-1.091-0.259-1.429-0.744L26.17,6.116c-0.266-0.38-0.367-0.843-0.286-1.3
		c0.081-0.457,0.336-0.856,0.718-1.121c0.787-0.548,1.872-0.355,2.421,0.431l0.5,0.718c0.187,0.268,0.121,0.637-0.147,0.824
		c-0.268,0.186-0.636,0.121-0.824-0.148l-0.5-0.717c-0.176-0.252-0.524-0.313-0.774-0.138c-0.122,0.085-0.204,0.212-0.229,0.359
		c-0.026,0.146,0.007,0.294,0.092,0.415l9.123,13.087c0.176,0.252,0.524,0.313,0.774,0.138c0.122-0.085,0.203-0.212,0.229-0.359
		c0.026-0.146-0.006-0.294-0.091-0.416l-6.534-9.372c-0.187-0.268-0.121-0.637,0.147-0.824c0.268-0.186,0.635-0.121,0.823,0.147
		l6.535,9.373c0.266,0.381,0.367,0.843,0.285,1.3c-0.082,0.457-0.336,0.855-0.717,1.121C37.412,19.845,37.066,19.946,36.722,19.946z
		"/>
	<path d="M19.418,25.565c-0.103,0-0.207-0.009-0.31-0.028c-0.457-0.081-0.856-0.336-1.121-0.717l-3.073-4.408
		c-0.266-0.381-0.368-0.843-0.286-1.3c0.081-0.458,0.336-0.856,0.717-1.121c0.382-0.266,0.843-0.366,1.3-0.286
		c0.457,0.082,0.855,0.337,1.121,0.718l3.074,4.408c0.547,0.787,0.354,1.873-0.432,2.421C20.114,25.458,19.769,25.565,19.418,25.565
		z M16.022,18.961c-0.121,0.085-0.203,0.212-0.229,0.358c-0.026,0.146,0.007,0.294,0.091,0.416l3.073,4.408
		c0.085,0.122,0.212,0.203,0.359,0.229c0.146,0.027,0.294-0.007,0.416-0.091c0.252-0.175,0.313-0.523,0.138-0.774l-3.074-4.408
		c-0.085-0.122-0.212-0.203-0.359-0.229C16.292,18.843,16.144,18.876,16.022,18.961L16.022,18.961z"/>
	<path d="M25.586,24.996c-0.462,0-0.912-0.136-1.305-0.4c-0.533-0.358-0.89-0.903-1.005-1.535l-0.178-0.976
		c-0.059-0.321,0.154-0.629,0.476-0.688c0.319-0.058,0.629,0.155,0.687,0.476l0.178,0.976c0.058,0.315,0.235,0.586,0.5,0.764
		c0.267,0.178,0.585,0.24,0.898,0.173l1.786-0.381c0.631-0.134,1.036-0.758,0.902-1.39l-0.299-1.408
		c-0.068-0.319,0.136-0.633,0.455-0.701c0.317-0.068,0.633,0.136,0.702,0.455l0.3,1.408c0.269,1.269-0.544,2.522-1.812,2.793
		l-1.786,0.381C25.918,24.978,25.751,24.996,25.586,24.996z"/>
</g>















</svg>
