<?xml version="1.0" encoding="utf-8"?>
<svg version="1.1" xmlns="http://www.w3.org/2000/svg" xmlns:xlink="http://www.w3.org/1999/xlink" viewBox="0 0 24.411 24.696">
<path d="M1.801,10.05h8.528c0.264,0,0.478-0.214,0.478-0.478V1.801c0-0.264-0.214-0.478-0.478-0.478H1.801
	c-0.264,0-0.478,0.214-0.478,0.478v7.771C1.323,9.836,1.537,10.05,1.801,10.05z M2.278,2.278h7.573v6.816H2.278V2.278z"/>
<path d="M1.801,11.97h8.528c0.264,0,0.478-0.214,0.478-0.478s-0.214-0.478-0.478-0.478H1.801c-0.264,0-0.478,0.214-0.478,0.478
	S1.537,11.97,1.801,11.97z"/>
<path d="M22.61,12.725h-8.529c-0.264,0-0.478,0.214-0.478,0.478v7.771c0,0.264,0.214,0.478,0.478,0.478h8.529
	c0.264,0,0.478-0.214,0.478-0.478v-7.771C23.088,12.939,22.874,12.725,22.61,12.725z M22.133,20.497h-7.574V13.68h7.574V20.497z"/>
<path d="M23.088,22.895c0-0.264-0.214-0.478-0.478-0.478h-8.529c-0.264,0-0.478,0.214-0.478,0.478s0.214,0.478,0.478,0.478h8.529
	C22.874,23.373,23.088,23.159,23.088,22.895z"/>
<path d="M1.801,22.049c0.264,0,0.478-0.214,0.478-0.478v-1.732c0-0.264-0.214-0.478-0.478-0.478s-0.478,0.214-0.478,0.478v1.732
	C1.323,21.835,1.537,22.049,1.801,22.049z"/>
<path d="M1.801,18.583c0.264,0,0.478-0.214,0.478-0.478v-1.732c0-0.264-0.214-0.478-0.478-0.478s-0.478,0.214-0.478,0.478v1.732
	C1.323,18.369,1.537,18.583,1.801,18.583z"/>
<path d="M4.419,22.895c0-0.264-0.214-0.478-0.478-0.478H2.209c-0.264,0-0.478,0.214-0.478,0.478s0.214,0.478,0.478,0.478h1.732
	C4.205,23.373,4.419,23.159,4.419,22.895z"/>
<path d="M1.801,15.118c0.264,0,0.478-0.214,0.478-0.478v-1.732c0-0.264-0.214-0.478-0.478-0.478s-0.478,0.214-0.478,0.478v1.732
	C1.323,14.904,1.537,15.118,1.801,15.118z"/>
<path d="M5.675,23.373h1.732c0.264,0,0.478-0.214,0.478-0.478s-0.214-0.478-0.478-0.478H5.675c-0.264,0-0.478,0.214-0.478,0.478
	S5.411,23.373,5.675,23.373z"/>
<path d="M10.872,22.418H9.139c-0.264,0-0.478,0.214-0.478,0.478s0.214,0.478,0.478,0.478h1.732c0.264,0,0.478-0.214,0.478-0.478
	S11.135,22.418,10.872,22.418z"/>
<path d="M18.557,2.58c0.264,0,0.478-0.214,0.478-0.478s-0.214-0.478-0.478-0.478h-1.732c-0.264,0-0.478,0.214-0.478,0.478
	s0.214,0.478,0.478,0.478H18.557z"/>
<path d="M15.093,2.58c0.264,0,0.478-0.214,0.478-0.478s-0.214-0.478-0.478-0.478H13.36c-0.264,0-0.478,0.214-0.478,0.478
	S13.096,2.58,13.36,2.58H15.093z"/>
<path d="M22.023,1.625h-1.732c-0.264,0-0.478,0.214-0.478,0.478s0.214,0.478,0.478,0.478h1.732c0.264,0,0.478-0.214,0.478-0.478
	S22.287,1.625,22.023,1.625z"/>
<path d="M22.432,9.879c-0.264,0-0.478,0.214-0.478,0.478v1.732c0,0.264,0.214,0.478,0.478,0.478s0.478-0.214,0.478-0.478v-1.732
	C22.91,10.093,22.696,9.879,22.432,9.879z"/>
<path d="M22.91,3.426c0-0.264-0.214-0.478-0.478-0.478s-0.478,0.214-0.478,0.478v1.732c0,0.264,0.214,0.478,0.478,0.478
	s0.478-0.214,0.478-0.478V3.426z"/>
<path d="M22.91,6.891c0-0.264-0.214-0.478-0.478-0.478s-0.478,0.214-0.478,0.478v1.732c0,0.264,0.214,0.478,0.478,0.478
	s0.478-0.214,0.478-0.478V6.891z"/>















</svg>
