<?xml version="1.0" encoding="utf-8"?>
<svg version="1.1" xmlns="http://www.w3.org/2000/svg" xmlns:xlink="http://www.w3.org/1999/xlink" viewBox="0 0 54.321 57.087">
<g>
	<path d="M38.426,14.626c-2.965-2.894-6.893-4.487-11.06-4.487l-0.202,0.001c-4.247-0.057-8.249,1.538-11.27,4.486
		c-3.015,2.944-4.701,6.899-4.747,11.137c-0.053,4.543,2.358,8.016,4.689,11.373l0.058,0.084c1.224,1.768,2.79,4.276,4.527,7.253
		c0.301,0.518,0.766,0.9,1.298,1.141l0.461,3.42c0.141,1.093,0.899,1.973,1.892,2.322l0.373,0.903
		c0.445,1.076,1.483,1.771,2.645,1.771h0.12c1.162,0,2.199-0.694,2.645-1.771l0.37-0.896c1.003-0.344,1.77-1.226,1.915-2.324
		l0.461-3.427c0.529-0.242,0.993-0.623,1.299-1.141c1.204-2.084,3.025-5.083,4.527-7.252l0.088-0.128
		c2.316-3.346,4.711-6.805,4.658-11.327C43.127,21.525,41.441,17.57,38.426,14.626z M28.294,51.522L28.261,51.6
		c-0.177,0.429-0.59,0.706-1.051,0.706h-0.12c-0.462,0-0.875-0.277-1.051-0.706l-0.032-0.078H28.294z M29.308,49.799h-4.295
		c-0.567,0-1.05-0.426-1.123-0.991l-0.047-0.352h5.595c0.475,0,0.862-0.387,0.862-0.861c0-0.476-0.387-0.862-0.862-0.862h-5.827
		l-0.113-0.843h7.326l-0.393,2.921C30.357,49.375,29.874,49.799,29.308,49.799z M25.195,44.167V32.139
		c0.624-0.124,1.182-0.497,1.51-1.058c0.189-0.324,0.721-0.324,0.91,0c0.328,0.561,0.885,0.933,1.51,1.058v12.027H25.195z
		 M31.425,44.167h-0.577v-12.4c0.257-0.182,0.487-0.405,0.651-0.685c0.189-0.324,0.72-0.324,0.91,0
		c0.239,0.408,0.768,0.547,1.18,0.309c0.41-0.24,0.547-0.77,0.308-1.179c-0.403-0.688-1.147-1.116-1.942-1.116
		c-0.393,0-0.773,0.106-1.106,0.295v-0.552c0-0.475-0.386-0.861-0.861-0.861s-0.862,0.387-0.862,0.861v1.394
		c-0.006-0.009-0.017-0.012-0.022-0.021c-0.403-0.688-1.147-1.116-1.942-1.116s-1.539,0.428-1.942,1.116
		c-0.006,0.01-0.017,0.012-0.023,0.021v-1.394c0-0.475-0.387-0.861-0.862-0.861s-0.861,0.387-0.861,0.861v0.552
		c-0.333-0.189-0.713-0.295-1.106-0.295c-0.795,0-1.539,0.428-1.942,1.115c-0.117,0.199-0.149,0.431-0.09,0.654
		c0.058,0.222,0.199,0.408,0.399,0.525c0.409,0.241,0.939,0.1,1.178-0.309c0.189-0.323,0.72-0.325,0.91,0
		c0.164,0.28,0.394,0.502,0.651,0.685v12.4h-0.577c-0.405,0-0.782-0.215-0.983-0.562c-1.761-3.016-3.352-5.563-4.601-7.369
		l-0.061-0.087c-2.176-3.135-4.425-6.376-4.379-10.367c0.042-3.777,1.543-7.302,4.228-9.923c2.642-2.578,6.142-3.998,9.856-3.998
		l0.219,0.002l0.192-0.002c3.714,0,7.215,1.42,9.856,3.999c2.686,2.621,4.187,6.145,4.228,9.923
		c0.046,3.972-2.188,7.201-4.352,10.327l-0.089,0.128c-1.533,2.214-3.381,5.256-4.598,7.363
		C32.204,43.95,31.827,44.167,31.425,44.167z"/>
	<path d="M16.111,21.737c-0.22-0.067-0.452-0.047-0.657,0.058c-0.204,0.106-0.354,0.286-0.423,0.506
		c-0.368,1.168-0.561,2.389-0.573,3.626c-0.005,0.475,0.377,0.865,0.855,0.871h0.006c0.471,0,0.857-0.383,0.861-0.853
		c0.012-1.069,0.178-2.122,0.495-3.128C16.817,22.365,16.565,21.881,16.111,21.737z"/>
	<path d="M27.081,13.618c-4.754-0.061-9.026,2.491-11.209,6.658c-0.107,0.203-0.127,0.437-0.059,0.656
		c0.069,0.22,0.219,0.399,0.422,0.506c0.123,0.064,0.261,0.099,0.4,0.099c0.322,0,0.615-0.177,0.764-0.462
		c1.853-3.537,5.497-5.734,9.513-5.734l0.158,0.001c0.469,0,0.855-0.382,0.861-0.851C27.938,14.017,27.557,13.625,27.081,13.618z"/>
	<path d="M27.16,8.946c0.475,0,0.861-0.387,0.861-0.861V3.921c0-0.476-0.386-0.862-0.861-0.862s-0.862,0.387-0.862,0.862v4.164
		C26.298,8.559,26.685,8.946,27.16,8.946z"/>
	<path d="M15.627,11.121c0.153,0.267,0.44,0.433,0.748,0.433c0.149,0,0.298-0.04,0.429-0.115c0.2-0.114,0.343-0.3,0.403-0.522
		c0.06-0.222,0.03-0.454-0.085-0.653l-2.077-3.615c-0.115-0.2-0.301-0.344-0.523-0.403c-0.221-0.059-0.455-0.03-0.653,0.086
		c-0.412,0.235-0.555,0.763-0.318,1.176L15.627,11.121z"/>
	<path d="M5.157,18.749l3.606,2.077c0.131,0.075,0.279,0.115,0.429,0.115c0.308,0,0.594-0.165,0.747-0.432
		c0.237-0.411,0.095-0.939-0.316-1.177l-3.606-2.077c-0.199-0.114-0.432-0.146-0.653-0.085c-0.223,0.06-0.409,0.202-0.523,0.402
		c-0.115,0.199-0.146,0.432-0.085,0.654C4.816,18.449,4.959,18.634,5.157,18.749z"/>
	<path d="M12.61,40.04c-0.221-0.056-0.454-0.027-0.652,0.088l-3.605,2.087c-0.199,0.115-0.342,0.302-0.401,0.523
		c-0.06,0.223-0.028,0.455,0.087,0.653c0.153,0.267,0.439,0.432,0.746,0.432c0.151,0,0.301-0.04,0.432-0.116l3.606-2.087
		c0.41-0.239,0.55-0.768,0.313-1.179C13.019,40.242,12.833,40.099,12.61,40.04z"/>
	<path d="M8.946,31.355c0-0.475-0.386-0.861-0.861-0.861H3.92c-0.475,0-0.861,0.387-0.861,0.861c0,0.476,0.386,0.862,0.861,0.862
		h4.165C8.56,32.217,8.946,31.831,8.946,31.355z"/>
	<path d="M37.517,11.438c0.131,0.075,0.279,0.115,0.429,0.115c0.308,0,0.594-0.166,0.748-0.433l2.077-3.615
		c0.115-0.2,0.145-0.433,0.085-0.654s-0.203-0.407-0.402-0.521c-0.2-0.114-0.432-0.145-0.654-0.086
		c-0.223,0.06-0.408,0.203-0.523,0.403L37.2,10.262c-0.115,0.199-0.146,0.432-0.085,0.653
		C37.174,11.138,37.318,11.324,37.517,11.438z"/>
	<path d="M45.128,20.941c0.15,0,0.298-0.04,0.43-0.115l3.605-2.077c0.199-0.114,0.342-0.3,0.402-0.521
		c0.06-0.223,0.03-0.455-0.085-0.654c-0.237-0.413-0.765-0.556-1.177-0.317l-3.605,2.077c-0.412,0.237-0.554,0.766-0.316,1.177
		C44.534,20.776,44.82,20.941,45.128,20.941z"/>
	<path d="M45.969,42.214l-3.605-2.087c-0.199-0.115-0.43-0.146-0.654-0.087c-0.223,0.059-0.409,0.201-0.524,0.401
		c-0.237,0.41-0.096,0.938,0.314,1.178l3.605,2.086c0.131,0.077,0.281,0.117,0.432,0.117c0.307,0,0.593-0.165,0.746-0.431
		c0.116-0.199,0.147-0.432,0.087-0.654C46.311,42.516,46.168,42.33,45.969,42.214z"/>
	<path d="M50.401,30.494h-4.165c-0.475,0-0.861,0.387-0.861,0.861c0,0.476,0.386,0.862,0.861,0.862h4.165
		c0.475,0,0.861-0.387,0.861-0.862C51.262,30.881,50.876,30.494,50.401,30.494z"/>
</g>















</svg>
