<?xml version="1.0" encoding="utf-8"?>
<svg version="1.1" xmlns="http://www.w3.org/2000/svg" xmlns:xlink="http://www.w3.org/1999/xlink" viewBox="0 0 36.341 36.187">
<g>
	<path d="M31.119,27.877H4.337c-1.318,0-2.391-1.072-2.391-2.39V8.922c0-1.318,1.073-2.391,2.391-2.391h10.306
		c0.321,0,0.581,0.26,0.581,0.581c0,0.321-0.26,0.581-0.581,0.581H4.337c-0.678,0-1.229,0.551-1.229,1.229v16.565
		c0,0.677,0.551,1.229,1.229,1.229h26.781c0.678,0,1.229-0.551,1.229-1.229v-5.435c0-0.321,0.26-0.581,0.581-0.581
		c0.321,0,0.581,0.26,0.581,0.581v5.435C33.509,26.805,32.437,27.877,31.119,27.877z"/>
	<path d="M28.535,34.241H6.922c-0.321,0-0.58-0.26-0.58-0.581c0-0.321,0.26-0.58,0.58-0.58h21.613c0.321,0,0.581,0.26,0.581,0.58
		C29.116,33.981,28.855,34.241,28.535,34.241z"/>
	<path d="M32.929,24.812H2.528c-0.321,0-0.581-0.26-0.581-0.581c0-0.321,0.26-0.581,0.581-0.581h30.401
		c0.321,0,0.581,0.26,0.581,0.581C33.509,24.552,33.249,24.812,32.929,24.812z"/>
	<path d="M12.772,24.812h-1.506c-0.652,0-1.183-0.53-1.183-1.183v-0.509c-0.152-0.055-0.3-0.117-0.445-0.184l-0.359,0.359
		c-0.447,0.448-1.225,0.447-1.673,0l-1.064-1.064c-0.224-0.223-0.347-0.52-0.347-0.836c0-0.316,0.123-0.614,0.347-0.837l0.359-0.359
		c-0.068-0.146-0.129-0.294-0.184-0.445H6.209c-0.652,0-1.183-0.53-1.183-1.183v-1.505c0-0.652,0.53-1.183,1.183-1.183h0.509
		c0.055-0.151,0.117-0.3,0.184-0.445l-0.359-0.359c-0.224-0.223-0.347-0.52-0.347-0.836s0.123-0.614,0.347-0.837l1.064-1.064
		c0.46-0.461,1.211-0.462,1.672-0.001l0.36,0.36c0.146-0.068,0.294-0.129,0.445-0.184v-0.509c0-0.652,0.53-1.183,1.183-1.183h1.506
		c0.652,0,1.183,0.53,1.183,1.183v0.509c0.151,0.055,0.3,0.116,0.445,0.184l0.359-0.359c0.463-0.462,1.212-0.461,1.673,0
		l1.064,1.064c0.224,0.223,0.347,0.521,0.347,0.837s-0.123,0.613-0.347,0.837l-0.359,0.359c0.068,0.146,0.129,0.294,0.184,0.445
		h0.509c0.653,0,1.183,0.531,1.183,1.183v1.505c0,0.652-0.53,1.183-1.183,1.183h-0.509c-0.055,0.151-0.116,0.3-0.184,0.445
		l0.359,0.359c0.224,0.223,0.347,0.521,0.347,0.837c0,0.316-0.124,0.613-0.348,0.837l-1.064,1.064
		c-0.447,0.447-1.225,0.447-1.673,0.001l-0.359-0.36c-0.145,0.068-0.293,0.129-0.445,0.184v0.509
		C13.955,24.282,13.425,24.812,12.772,24.812z M9.527,21.646c0.098,0,0.197,0.025,0.287,0.076c0.313,0.177,0.651,0.317,1.006,0.415
		c0.252,0.07,0.426,0.298,0.426,0.559v0.933l1.527,0.021l0.021-0.954c0-0.261,0.174-0.49,0.426-0.559
		c0.355-0.098,0.694-0.238,1.006-0.415c0.228-0.129,0.512-0.09,0.697,0.094l0.658,0.658l1.095-1.064l-0.658-0.689
		c-0.185-0.184-0.224-0.469-0.095-0.697c0.177-0.312,0.317-0.65,0.415-1.006c0.07-0.252,0.299-0.426,0.56-0.426h0.932l0.022-1.527
		c-0.022-0.021-0.954-0.021-0.954-0.021c-0.261,0-0.49-0.174-0.56-0.426c-0.098-0.355-0.238-0.693-0.415-1.006
		c-0.129-0.228-0.09-0.513,0.095-0.697l0.658-0.658l-1.065-1.095l-0.688,0.659c-0.184,0.185-0.469,0.223-0.697,0.094
		c-0.313-0.177-0.652-0.317-1.006-0.416c-0.251-0.07-0.426-0.298-0.426-0.559v-0.932l-1.526-0.022l-0.022,0.954
		c0,0.261-0.174,0.49-0.426,0.559c-0.355,0.099-0.693,0.239-1.006,0.416c-0.227,0.129-0.513,0.09-0.697-0.094l-0.658-0.659
		l-1.095,1.064l0.658,0.689c0.185,0.184,0.224,0.469,0.095,0.697c-0.178,0.313-0.317,0.651-0.415,1.006
		c-0.07,0.252-0.299,0.426-0.56,0.426H6.209l-0.021,1.526l0.954,0.022c0.261,0,0.49,0.174,0.56,0.426
		c0.098,0.355,0.237,0.694,0.415,1.006c0.128,0.228,0.09,0.513-0.095,0.697L7.364,21.38l1.064,1.095l0.689-0.658
		C9.228,21.704,9.377,21.646,9.527,21.646z"/>
	<path d="M12.02,21.87c-2.234,0-4.051-1.818-4.051-4.051s1.817-4.05,4.051-4.05c2.233,0,4.051,1.817,4.051,4.05
		S14.253,21.87,12.02,21.87z M12.02,14.93c-1.593,0-2.889,1.296-2.889,2.889c0,1.593,1.296,2.889,2.889,2.889
		c1.593,0,2.889-1.296,2.889-2.889C14.909,16.225,13.612,14.93,12.02,14.93z"/>
	<path d="M25.534,21.87h-2.202c-0.806,0-1.462-0.656-1.462-1.462v-0.935c-0.336-0.113-0.662-0.247-0.975-0.402l-0.038,0.037
		c-0.227,0.227-0.594,0.227-0.821,0s-0.227-0.594,0-0.821l0.34-0.341c0.185-0.185,0.471-0.223,0.697-0.094
		c0.476,0.269,0.991,0.483,1.533,0.633c0.251,0.07,0.426,0.298,0.426,0.559v1.364c0,0.166,0.134,0.3,0.3,0.3h2.202
		c0.165,0,0.3-0.134,0.3-0.3v-1.364c0-0.261,0.174-0.49,0.426-0.559c0.541-0.15,1.057-0.363,1.533-0.633
		c0.228-0.129,0.512-0.09,0.697,0.094l0.963,0.963c0.117,0.117,0.308,0.117,0.425,0l1.557-1.557c0.117-0.117,0.117-0.308,0-0.424
		l-0.963-0.963c-0.185-0.185-0.224-0.47-0.095-0.697c0.269-0.475,0.483-0.991,0.633-1.532c0.07-0.252,0.299-0.426,0.559-0.426h1.365
		c0.165,0,0.3-0.135,0.3-0.3v-2.202c0-0.166-0.135-0.3-0.3-0.3h-1.365c-0.26,0-0.49-0.174-0.559-0.426
		c-0.15-0.541-0.363-1.057-0.633-1.533c-0.129-0.227-0.09-0.512,0.095-0.696l0.963-0.963c0.117-0.117,0.117-0.308,0-0.425
		l-1.557-1.557c-0.113-0.113-0.311-0.113-0.425,0l-0.963,0.963c-0.184,0.185-0.469,0.223-0.697,0.094
		c-0.476-0.269-0.992-0.483-1.533-0.633c-0.251-0.07-0.426-0.299-0.426-0.559V3.408c0-0.165-0.135-0.3-0.3-0.3h-2.202
		c-0.165,0-0.3,0.135-0.3,0.3v1.365c0,0.26-0.174,0.489-0.426,0.559c-0.542,0.15-1.057,0.363-1.533,0.633
		c-0.226,0.129-0.513,0.09-0.697-0.094l-0.963-0.963c-0.113-0.113-0.311-0.114-0.424,0l-1.557,1.557
		c-0.057,0.057-0.089,0.132-0.089,0.212c0,0.08,0.032,0.155,0.088,0.212l0.963,0.964c0.185,0.184,0.223,0.469,0.095,0.696
		c-0.27,0.476-0.483,0.992-0.633,1.533c-0.07,0.252-0.298,0.426-0.559,0.426h-1.364c-0.165,0-0.3,0.134-0.3,0.3
		c0,0.321-0.26,0.58-0.581,0.58c-0.321,0-0.58-0.26-0.58-0.58c0-0.806,0.656-1.462,1.462-1.462h0.935
		c0.113-0.336,0.247-0.662,0.402-0.976l-0.66-0.66c-0.276-0.275-0.428-0.643-0.428-1.033c0-0.39,0.152-0.757,0.428-1.033
		l1.557-1.557c0.553-0.553,1.516-0.552,2.067,0l0.66,0.66c0.313-0.155,0.639-0.289,0.975-0.403V3.408
		c0-0.806,0.656-1.462,1.462-1.462h2.202c0.806,0,1.461,0.656,1.461,1.462v0.935c0.336,0.113,0.662,0.248,0.976,0.403l0.66-0.66
		c0.551-0.553,1.515-0.553,2.067,0l1.557,1.557c0.57,0.57,0.57,1.497,0,2.067l-0.66,0.66c0.155,0.314,0.289,0.64,0.403,0.976h0.935
		c0.806,0,1.462,0.656,1.462,1.462v2.202c0,0.806-0.656,1.462-1.462,1.462h-0.936c-0.113,0.336-0.247,0.662-0.402,0.976l0.66,0.66
		c0.57,0.57,0.57,1.497,0,2.067l-1.557,1.557c-0.57,0.57-1.497,0.57-2.067,0l-0.66-0.66c-0.315,0.155-0.641,0.289-0.976,0.402v0.935
		C26.995,21.214,26.34,21.87,25.534,21.87z"/>
	<path d="M24.433,17.564c-3.118,0-5.656-2.538-5.656-5.656c0-3.119,2.538-5.656,5.656-5.656c3.119,0,5.657,2.537,5.657,5.656
		C30.089,15.027,27.552,17.564,24.433,17.564z M24.433,7.413c-2.479,0-4.495,2.016-4.495,4.495s2.016,4.495,4.495,4.495
		s4.495-2.016,4.495-4.495S26.911,7.413,24.433,7.413z"/>
	<path d="M24.433,14.456c-1.405,0-2.547-1.143-2.547-2.547c0-0.321,0.26-0.581,0.581-0.581c0.321,0,0.581,0.26,0.581,0.581
		c0,0.765,0.621,1.386,1.385,1.386s1.386-0.622,1.386-1.386s-0.622-1.386-1.386-1.386c-0.321,0-0.58-0.26-0.58-0.581
		c0-0.321,0.26-0.581,0.58-0.581c1.405,0,2.548,1.143,2.548,2.548C26.981,13.313,25.838,14.456,24.433,14.456z"/>
	<path d="M22.23,34.241h-9.004c-0.321,0-0.58-0.26-0.58-0.581v-2.589c0-0.321,0.26-0.581,0.58-0.581h1.437v-3.193
		c0-0.321,0.26-0.581,0.581-0.581h4.97c0.321,0,0.58,0.26,0.58,0.581v3.193h1.437c0.321,0,0.581,0.26,0.581,0.581v2.589
		C22.811,33.981,22.551,34.241,22.23,34.241z M13.807,33.079h7.842v-1.427h-1.436c-0.321,0-0.581-0.26-0.581-0.581v-3.194h-3.808
		v3.194c0,0.321-0.26,0.581-0.58,0.581h-1.437V33.079z"/>
	<path d="M18.023,31.652h-2.78c-0.321,0-0.581-0.26-0.581-0.581s0.26-0.581,0.581-0.581h2.78c0.321,0,0.58,0.26,0.58,0.581
		S18.344,31.652,18.023,31.652z"/>
</g>















</svg>
