<?xml version="1.0" encoding="utf-8"?>
<svg version="1.1" xmlns="http://www.w3.org/2000/svg" xmlns:xlink="http://www.w3.org/1999/xlink" viewBox="0 0 57.524 50.693">
<g>
	<path d="M51.583,3.082H5.941c-1.577,0-2.859,1.282-2.859,2.859v30.562c0,1.576,1.283,2.858,2.859,2.858h19.393v1.833h-3.962
		c-1.577,0-2.859,1.282-2.859,2.859v0.698c0,1.577,1.282,2.859,2.859,2.859h14.781c1.577,0,2.859-1.282,2.859-2.859v-0.698
		c0-1.577-1.283-2.859-2.859-2.859h-3.962v-1.833h19.393c1.577,0,2.859-1.282,2.859-2.858V5.941
		C54.442,4.364,53.16,3.082,51.583,3.082z M5.941,37.638c-0.626,0-1.136-0.51-1.136-1.136V5.941c0-0.626,0.51-1.136,1.136-1.136
		h45.642c0.626,0,1.136,0.51,1.136,1.136v30.562c0,0.626-0.51,1.136-1.136,1.136H5.941z M36.152,42.917
		c0.626,0,1.136,0.51,1.136,1.137v0.698c0,0.627-0.51,1.137-1.136,1.137H21.371c-0.626,0-1.136-0.51-1.136-1.137v-0.698
		c0-0.627,0.51-1.137,1.136-1.137H36.152z M27.057,41.194v-1.833h3.41v1.833H27.057z"/>
	<path d="M14.592,7.11c0-0.476-0.386-0.862-0.861-0.862H8.827c-1.577,0-2.859,1.282-2.859,2.859v2.797
		c0,0.475,0.386,0.861,0.861,0.861s0.862-0.387,0.862-0.861V9.107c0-0.626,0.51-1.136,1.136-1.136h4.904
		C14.206,7.971,14.592,7.585,14.592,7.11z"/>
	<path d="M6.83,13.948c-0.475,0-0.861,0.387-0.861,0.862v3.615c0,0.475,0.386,0.861,0.861,0.861s0.862-0.387,0.862-0.861V14.81
		C7.691,14.335,7.305,13.948,6.83,13.948z"/>
	<path d="M19.721,30.511c0.475,0,0.861-0.387,0.861-0.861v-4.194c0-0.475-0.386-0.861-0.861-0.861s-0.862,0.387-0.862,0.861v4.194
		C18.859,30.125,19.246,30.511,19.721,30.511z"/>
	<path d="M22.737,24.772c-0.475,0-0.861,0.387-0.861,0.861v4.017c0,0.475,0.386,0.861,0.861,0.861s0.862-0.387,0.862-0.861v-4.017
		C23.599,25.159,23.212,24.772,22.737,24.772z"/>
	<path d="M25.746,22.183c-0.475,0-0.862,0.387-0.862,0.861v6.605c0,0.475,0.387,0.861,0.862,0.861s0.861-0.387,0.861-0.861v-6.605
		C26.608,22.57,26.221,22.183,25.746,22.183z"/>
	<path d="M28.762,25.099c-0.475,0-0.861,0.387-0.861,0.861v3.689c0,0.475,0.386,0.861,0.861,0.861s0.862-0.387,0.862-0.861v-3.689
		C29.624,25.486,29.237,25.099,28.762,25.099z"/>
	<path d="M31.778,22.275c-0.475,0-0.861,0.387-0.861,0.862v6.513c0,0.475,0.386,0.861,0.861,0.861c0.475,0,0.862-0.387,0.862-0.861
		v-6.513C32.64,22.662,32.253,22.275,31.778,22.275z"/>
	<path d="M34.787,20.76c-0.475,0-0.861,0.387-0.861,0.861v8.028c0,0.475,0.386,0.861,0.861,0.861s0.862-0.387,0.862-0.861v-8.028
		C35.649,21.147,35.262,20.76,34.787,20.76z"/>
	<path d="M37.803,22.987c-0.475,0-0.861,0.387-0.861,0.861v5.802c0,0.475,0.386,0.861,0.861,0.861s0.862-0.387,0.862-0.861v-5.802
		C38.665,23.374,38.278,22.987,37.803,22.987z"/>
	<path d="M19.668,22.845l3.015,0.185c0.221,0.017,0.447-0.062,0.617-0.207l2.413-2.076l2.451,2.369
		c0.16,0.156,0.373,0.242,0.599,0.242c0.22,0,0.429-0.082,0.589-0.232l2.925-2.739l2.425-1.221l2.59,1.912
		c0.381,0.281,0.923,0.2,1.205-0.182c0.282-0.383,0.2-0.923-0.182-1.205l-3.016-2.227c-0.262-0.194-0.606-0.223-0.899-0.076
		l-3.006,1.514c-0.075,0.037-0.145,0.085-0.205,0.143l-2.417,2.263l-2.427-2.347c-0.321-0.309-0.821-0.326-1.161-0.033l-2.744,2.361
		l-2.664-0.163c-0.227-0.022-0.45,0.059-0.623,0.21c-0.174,0.153-0.278,0.365-0.292,0.597c-0.014,0.23,0.062,0.451,0.215,0.624
		S19.439,22.832,19.668,22.845z"/>
	<path d="M43.236,10.323H14.288c-1.577,0-2.859,1.282-2.859,2.859v18.077c0,1.576,1.282,2.858,2.859,2.858h28.948
		c1.577,0,2.859-1.282,2.859-2.858V13.182C46.095,11.605,44.813,10.323,43.236,10.323z M13.152,15.222h31.22v16.037
		c0,0.626-0.51,1.136-1.136,1.136H14.288c-0.626,0-1.136-0.51-1.136-1.136V15.222z M44.372,13.499h-31.22v-0.316
		c0-0.627,0.51-1.137,1.136-1.137h28.948c0.626,0,1.136,0.51,1.136,1.137V13.499z"/>
</g>















</svg>
