<?xml version="1.0" encoding="utf-8"?>
<svg version="1.1" xmlns="http://www.w3.org/2000/svg" xmlns:xlink="http://www.w3.org/1999/xlink" viewBox="0 0 24.566 37.169">
<path d="M20.276,2.557c-0.633-0.35-1.349-0.566-2.122-0.566H6.409c-0.773,0-1.488,0.217-2.121,0.566
	c-0.731,0.404-1.33,1.004-1.733,1.736C2.207,4.924,1.991,5.638,1.991,6.409v24.349c0,0.771,0.216,1.485,0.563,2.117
	c0.403,0.731,0.999,1.33,1.729,1.735c0.633,0.351,1.351,0.569,2.125,0.569h11.746c0.774,0,1.492-0.218,2.126-0.569
	c0.729-0.404,1.325-1.002,1.728-1.731c0.35-0.632,0.566-1.348,0.566-2.12V6.409c0-0.772-0.217-1.487-0.566-2.12
	C21.605,3.559,21.007,2.961,20.276,2.557z M21.443,30.758c0,1.812-1.473,3.288-3.288,3.288H6.409c-1.812,0-3.285-1.476-3.285-3.288
	V6.409c0-1.812,1.473-3.285,3.285-3.285h11.746c1.815,0,3.288,1.473,3.288,3.285V30.758z"/>
<path d="M18.908,5.567H5.573c-0.311,0-0.566,0.252-0.566,0.566v22.698c0,0.315,0.255,0.566,0.566,0.566h13.335
	c0.311,0,0.563-0.252,0.563-0.566V6.133C19.471,5.819,19.219,5.567,18.908,5.567z M18.339,28.264h-12.2V6.699h12.2V28.264z"/>
<path d="M14.167,30.358h-3.306c-0.314,0-0.563,0.255-0.563,0.566c0,0.314,0.249,0.566,0.563,0.566h3.306
	c0.314,0,0.566-0.252,0.566-0.566C14.734,30.613,14.482,30.358,14.167,30.358z"/>
<path d="M11.941,25.579c0.107,0.13,0.264,0.207,0.433,0.21c0,0,0.006,0,0.009,0c0.163,0,0.32-0.074,0.43-0.199l4.539-5.289
	c0.142-0.169,0.175-0.403,0.083-0.605c-0.092-0.202-0.293-0.332-0.513-0.332h-2.12v-8.633c0-0.311-0.252-0.563-0.566-0.563h-3.442
	c-0.311,0-0.566,0.252-0.566,0.563v8.633H8.11c-0.219,0-0.418,0.128-0.513,0.323c-0.092,0.199-0.065,0.43,0.071,0.602L11.941,25.579
	z M10.793,20.497c0.314,0,0.567-0.252,0.567-0.563V11.3h2.309v8.633c0,0.311,0.255,0.563,0.566,0.563h1.453l-3.294,3.842
	l-3.098-3.842H10.793z"/>















</svg>
