<?xml version="1.0" encoding="utf-8"?>
<svg version="1.1" xmlns="http://www.w3.org/2000/svg" xmlns:xlink="http://www.w3.org/1999/xlink" viewBox="0 0 35.987 32.566">
<path d="M32.177,30.072V19.192c1.117-0.628,1.883-1.811,1.883-3.182V8.261V8.254V8.252c0-0.092-0.026-0.175-0.065-0.252
	c-0.004-0.008-0.002-0.017-0.006-0.024l-3.22-5.757c-0.099-0.181-0.288-0.291-0.492-0.291H5.714c-0.205,0-0.394,0.11-0.495,0.291
	L1.999,7.976C1.995,7.983,1.997,7.992,1.993,8C1.954,8.076,1.928,8.16,1.928,8.252v0.006v0v7.752c0,1.372,0.766,2.554,1.884,3.182
	v10.879c0,0.311,0.253,0.566,0.565,0.566h9.01h9.216h9.008C31.922,30.638,32.177,30.383,32.177,30.072z M22.035,29.505h-8.082v-3.4
	c0-2.227,1.813-4.041,4.041-4.041c2.229,0,4.041,1.814,4.041,4.041V29.505z M17.994,20.931c-2.852,0-5.173,2.322-5.173,5.173v3.4
	H4.944v-9.896c0.212,0.038,0.428,0.066,0.651,0.066c1.307,0,2.449-0.694,3.098-1.728c0.649,1.034,1.792,1.728,3.101,1.728
	c1.31,0,2.452-0.695,3.1-1.73c0.648,1.035,1.79,1.73,3.099,1.73c1.309,0,2.452-0.694,3.101-1.729c0.649,1.034,1.791,1.729,3.1,1.729
	c1.308,0,2.451-0.694,3.1-1.729c0.649,1.034,1.792,1.729,3.101,1.729c0.222,0,0.438-0.028,0.649-0.066v9.896h-7.876v-3.4
	C23.168,23.253,20.846,20.931,17.994,20.931z M29.943,3.06l2.586,4.625H31.61h-4.317h-6.199h-6.201h-6.2H4.377H3.461L6.046,3.06
	H29.943z M32.93,16.01c0,0.703-0.289,1.338-0.753,1.797c-0.166,0.164-0.36,0.297-0.566,0.41c-0.177,0.098-0.366,0.176-0.566,0.229
	c-0.208,0.056-0.424,0.095-0.649,0.095c-1.398,0-2.535-1.135-2.535-2.532V8.818h3.184h0.566h0.566h0.753V16.01z M26.728,16.01
	c0,1.396-1.135,2.532-2.533,2.532c-1.398,0-2.533-1.135-2.533-2.532V8.818h5.067V16.01z M20.528,16.01
	c0,1.396-1.137,2.532-2.535,2.532c-1.396,0-2.535-1.135-2.535-2.532V8.818h5.07V16.01z M14.329,16.01
	c0,1.396-1.138,2.532-2.535,2.532c-1.396,0-2.535-1.135-2.535-2.532V8.818h5.07V16.01z M3.06,8.818h0.752h0.565h0.568h3.183v7.192
	c0,1.396-1.135,2.532-2.532,2.532c-0.226,0-0.442-0.039-0.651-0.095c-0.201-0.054-0.39-0.132-0.568-0.23
	c-0.206-0.114-0.399-0.246-0.565-0.41C3.349,17.348,3.06,16.712,3.06,16.01V8.818z"/>















</svg>
