<?xml version="1.0" encoding="utf-8"?>
<svg version="1.1" xmlns="http://www.w3.org/2000/svg" xmlns:xlink="http://www.w3.org/1999/xlink" viewBox="0 0 57.555 55.711">
<path d="M54.428,25.091c-0.014-0.065-0.016-0.13-0.044-0.194c-0.001-0.003-0.001-0.007-0.002-0.01l-5.226-11.685
	c-0.04-0.09-0.093-0.171-0.155-0.244c-0.002-0.003-0.003-0.006-0.006-0.009c-0.072-0.084-0.16-0.152-0.256-0.21
	c-0.029-0.017-0.06-0.028-0.091-0.042c-0.072-0.034-0.148-0.062-0.229-0.079c-0.019-0.004-0.035-0.016-0.055-0.019l-16.619-2.549
	c-0.325-2.243-1.011-4.433-2.046-6.45c-0.355-0.692-1.49-0.692-1.845,0c-1.035,2.017-1.721,4.208-2.046,6.45l-16.62,2.549
	c-0.02,0.003-0.035,0.015-0.055,0.019c-0.081,0.017-0.157,0.044-0.229,0.079c-0.03,0.014-0.062,0.025-0.09,0.042
	c-0.096,0.058-0.184,0.126-0.256,0.21c-0.001,0.002-0.002,0.004-0.004,0.006c-0.062,0.073-0.116,0.156-0.157,0.247L3.173,24.887
	c-0.002,0.003-0.001,0.007-0.002,0.01c-0.027,0.062-0.029,0.128-0.043,0.192c-0.016,0.07-0.042,0.136-0.043,0.211
	c0,0.003-0.002,0.006-0.002,0.01c0,3.489,2.809,6.327,6.263,6.327s6.263-2.838,6.263-6.327c0-0.003-0.002-0.006-0.002-0.01
	c-0.001-0.074-0.027-0.14-0.042-0.21c-0.014-0.065-0.016-0.13-0.044-0.194c-0.001-0.003-0.001-0.007-0.002-0.01l-4.449-9.948
	l14.518,2.227v33.387H14.572c-0.573,0-1.037,0.464-1.037,1.037s0.464,1.037,1.037,1.037h12.052h4.306h12.052
	c0.573,0,1.037-0.464,1.037-1.037s-0.464-1.037-1.037-1.037H31.968V17.166l14.518-2.227l-4.449,9.948
	c-0.002,0.003-0.001,0.007-0.002,0.01c-0.027,0.062-0.029,0.128-0.043,0.192c-0.016,0.07-0.042,0.136-0.043,0.211
	c0,0.003-0.002,0.006-0.002,0.01c0,3.489,2.809,6.327,6.263,6.327s6.263-2.838,6.263-6.327c0-0.003-0.002-0.006-0.002-0.01
	C54.469,25.227,54.443,25.161,54.428,25.091z M9.346,29.564c-1.958,0-3.606-1.37-4.063-3.216h4.063h4.063
	C12.952,28.194,11.304,29.564,9.346,29.564z M12.972,24.274h-2.589v-4.042c0-0.573-0.464-1.037-1.037-1.037
	s-1.037,0.464-1.037,1.037v4.042H5.721l3.626-8.108L12.972,24.274z M16.187,13.626l9.424-1.446
	c-0.011,0.269-0.024,0.537-0.024,0.806v2.081L16.187,13.626z M27.662,50.553V12.987c0-2.151,0.382-4.299,1.116-6.321
	c0.733,2.021,1.116,4.17,1.116,6.321v37.567H27.662z M31.968,15.068v-2.081c0-0.269-0.014-0.538-0.024-0.806l9.424,1.446
	L31.968,15.068z M48.209,16.166l3.626,8.108h-2.589v-4.042c0-0.573-0.464-1.037-1.037-1.037c-0.573,0-1.037,0.464-1.037,1.037v4.042
	h-2.589L48.209,16.166z M48.209,29.564c-1.958,0-3.606-1.37-4.063-3.216h4.063h4.063C51.815,28.194,50.167,29.564,48.209,29.564z"/>















</svg>
